<svg width="540" height="84" viewBox="0 0 540 84" fill="none" xmlns="http://www.w3.org/2000/svg">
<g clip-path="url(#clip0)">
<rect width="540" height="84" fill="#EEEEEE"/>
<g opacity="0.6">
<path d="M60.519 131.894L60.5903 131.807L60.3977 131.807L60.419 131.849L60.519 131.894ZM-7.3154 131.886L-7.20121 131.849L-7.17271 131.807L-7.27972 131.807L-7.27972 131.619L-7.35818 131.765L-7.3154 131.886ZM73.9888 131.844L73.9816 131.807L73.9674 131.807L73.9674 131.82L73.9888 131.844ZM-7.27973 59.1279L-7.27973 58.9432L-7.30112 58.9503L-7.36529 59.0366L-7.30112 59.1222L-7.27973 59.1279ZM-7.27973 34.1916L-7.27973 33.907L-7.35108 34.0154L-7.3368 34.1281L-7.27973 34.1916Z" fill="#6E6E6E"/>
<path d="M-7.27974 131.807L-7.17272 131.807L26.773 68.5439L26.7944 68.4995L27.1297 69.1316L60.3976 131.807L60.5903 131.807L60.5903 40.9899L73.9674 131.807L73.9816 131.807L73.9745 131.779L74.0886 131.43L60.6117 39.9005L101.057 52.6726L101.064 52.6412L100.814 52.4093L60.5617 39.6979L27.2011 -15.385L26.8015 -15.7531L26.2379 -15.2116L-7.27975 33.9069L-7.27975 34.1915L11.9191 53.4866L-7.27975 58.9431L-7.27975 59.1279L26.666 68.3669L-7.27974 131.619L-7.27974 131.807ZM60.4119 39.9654L60.4119 131.449L26.9085 68.3321L60.4119 39.9654ZM60.1265 39.9712L26.8015 68.1894L12.2615 53.5751L60.1265 39.9712ZM12.0689 53.6315L26.5018 68.1372L-6.94441 59.0337L12.0689 53.6315ZM60.362 39.7186L12.1188 53.431L-7.15845 34.0546L26.7944 -15.711L60.362 39.7186Z" fill="#6E6E6E"/>
<path d="M74.2094 131.633L74.3663 131.556L138.362 50.016L138.362 49.8126L138.155 49.6942L101.327 52.513L101.249 52.6514L101.235 52.6992L138.255 49.8654L74.3093 131.338L74.2094 131.633Z" fill="#6E6E6E"/>
<path d="M73.9816 131.807L74.2599 131.807L138.991 100.151L138.962 100.147L138.891 100.047L138.991 99.9706L139.062 99.9811L138.541 50.0236L138.377 49.816L138.384 49.7796L138.363 49.754L138.37 49.612L111.837 34.0125L111.744 34.168L138.156 49.694L138.363 49.8125L138.363 50.0158L138.891 100.003L74.3669 131.556L74.2099 131.632L74.3098 131.338L101.235 52.6991L101.249 52.6513L101.242 52.6591L101.157 52.7033L101.078 52.6341L101.021 52.3566L27.4722 -15.3757L94.7357 24.1684L94.6858 23.9301L27.0298 -15.8408L26.8444 -15.7945L26.8015 -15.7531L27.2011 -15.3849L100.814 52.4094L101.064 52.6413L101.057 52.6727L74.0886 131.43L73.9745 131.779L73.9816 131.807ZM111.594 34.0774L111.68 33.9226L94.8927 24.0536L94.9498 24.2918L111.594 34.0774Z" fill="#6E6E6E"/>
<path d="M101.157 52.7034L101.242 52.6592L101.249 52.6514L101.328 52.5129L111.744 34.1681L111.837 34.0126L143.999 -22.6185L144.035 -22.9937L143.978 -23.115L108.662 -26.8185L108.291 -26.6772L143.978 -22.9359L111.68 33.9227L111.594 34.0775L101.207 52.3695L94.9497 24.2919L94.8926 24.0537L85.5393 -17.9504L85.3681 -17.8862L94.6857 23.9302L94.7357 24.1685L101.021 52.3567L101.078 52.6342L101.157 52.7034ZM85.3325 -18.0617L85.4966 -18.1266L82.9995 -29.3298L107.906 -26.7186L108.27 -26.8592L83.0566 -29.5025L111.516 -64.778L111.38 -64.9007L82.8354 -29.511L73.6819 -27.2987L73.6962 -27.1189L82.8211 -29.3234L85.3325 -18.0617ZM72.1551 -44.6746L108.355 -67.7467L108.227 -67.8729L72.1338 -44.8751L72.1551 -44.6746ZM111.623 -64.9171L112.508 -66.008L112.45 -66.2249L111.494 -65.0399L111.623 -64.9171ZM112.643 -66.1828L119.699 -74.9246L119.642 -75.0338L119.564 -75.098L119.349 -74.9624L111.673 -70.0696L111.716 -69.887L119.307 -74.7234L112.593 -66.3997L112.643 -66.1828ZM108.512 -67.8458L111.559 -69.7864L111.509 -69.9683L108.377 -67.9721L108.512 -67.8458Z" fill="#6E6E6E"/>
<path d="M182.432 106.211L182.361 106.151L182.383 106.059L182.454 105.99L138.648 49.868L138.441 49.8494L138.384 49.7795L138.377 49.8159L138.541 50.0235L182.24 106.004L139.062 99.981L138.991 99.9705L138.891 100.047L138.962 100.147L138.991 100.151L182.432 106.211ZM138.655 49.6896L203.349 -10.4844L203.247 -10.6335L138.556 49.5398L138.541 49.6796L138.655 49.6896ZM203.48 -10.6078L214.949 -21.2745L214.916 -21.4294L214.955 -21.5221L215.028 -21.5207L215.005 -21.5371L195.692 -21.9623L195.816 -21.7811L214.782 -21.363L203.378 -10.7562L203.48 -10.6078ZM195.596 -21.7861L195.472 -21.9673L144.178 -23.0981L144.206 -23.0482L144.213 -23.0032L144.206 -22.919L195.596 -21.7861Z" fill="#6E6E6E"/>
<path d="M250.797 115.165L250.929 115.036L250.94 115.035L250.944 115.023L251.232 114.846L294.493 36.4938L294.457 36.3911L294.321 36.4381L251.011 114.879L242.761 90.4123L242.677 90.7205L250.86 114.993L236.552 113.119L236.505 113.292L250.797 115.165ZM236.326 113.269L236.374 113.096L233.404 112.707L233.409 112.887L236.326 113.269ZM242.575 90.4173L242.659 90.1091L231.841 58.0213L231.818 58.0284L231.834 58.5599L242.575 90.4173Z" fill="#6E6E6E"/>
<path d="M233.779 131.807L233.995 131.807L247.694 118.441L247.499 118.382L233.951 131.601L233.408 112.887L233.403 112.707L231.834 58.56L231.818 58.0285L231.84 58.0213L241.078 54.8294L240.996 54.6696L231.794 57.8487L231.698 57.8815L231.675 57.9293L231.638 57.9686L231.644 58.1719L233.224 112.683L233.229 112.864L233.779 131.807ZM279.351 131.807L279.667 131.807L282.789 129.185L282.586 129.123L279.519 131.699L266.937 124.332L266.197 124.106L279.351 131.807ZM282.952 129.049L293.291 120.368L293.331 120.102L282.749 128.987L282.952 129.049ZM266.269 123.941L251.23 115.137L295.596 105.079L295.625 104.89L251.497 114.894L309.76 79.1458L317.223 99.994L308.603 101.948L308.757 102.096L317.002 100.227L311.559 104.797L311.688 104.921L317.336 100.18L317.278 100.122L317.277 99.9962L317.404 99.9953L317.528 100.118L349.461 94.7958L349.534 94.7173L349.479 94.6253L309.877 78.9446L294.595 36.2477L294.57 36.2363L294.481 36.1935L294.319 36.2499L241.167 54.6104L241.249 54.7709L294.32 36.4382L294.456 36.3911L294.493 36.4939L309.699 78.9738L251.232 114.846L250.943 115.023L250.94 115.035L250.928 115.036L250.796 115.165L247.645 118.239L247.839 118.299L251.004 115.211L265.53 123.715L266.269 123.941ZM309.957 79.1678L349.115 94.673L317.399 99.9583L309.957 79.1678ZM293.497 120.194L311.551 105.037L311.422 104.913L293.538 119.928L293.497 120.194ZM295.783 105.037L308.549 102.144L308.395 101.995L295.811 104.848L295.783 105.037Z" fill="#6E6E6E"/>
<path d="M56.2811 97.6704L90.4765 131.692L140.239 97.7375L84.7118 64.1064L84.6762 64.0571L71.8342 23.3908L71.8271 23.3566L74.6666 -13.7219L-7.05849 50.4168L84.7689 63.9417L84.8474 64.0364L84.7546 64.1192L-6.91579 64.1192L56.1955 97.621L84.6905 63.9723L84.7975 63.9514L84.8474 64.0543L65.5844 131.831L65.4916 131.896L65.4061 131.831L56.167 97.8651L-7.23685 131.886L-7.35814 131.849L-7.31537 131.729L56.1812 97.6547L56.2525 97.6511L56.3097 97.7096L65.4988 131.475L84.5621 64.4024L56.2882 97.791L56.1812 97.8125L-7.31537 64.1087L-7.36526 64.0086L-7.2797 63.9409L83.5418 63.9408L-7.28681 50.5631L-7.36526 50.4974L-7.32958 50.4047L74.7165 -13.9873L74.8092 -13.9958L74.8592 -13.9102L72.0054 23.3537L84.8331 63.9707L140.453 97.6567L140.496 97.7311L140.46 97.8066L90.5193 131.881L90.4051 131.871L56.1598 97.7966L56.1598 97.6704L56.2811 97.6704Z" fill="#6E6E6E"/>
<path d="M140.403 97.7332L140.339 97.794L71.8914 23.4673L-7.2439 50.559L-7.34374 50.534L-7.35802 50.4355L24.3902 -14.485L24.4759 -14.535L74.7737 -14.0063L74.845 -13.9621L140.482 97.6884L140.461 97.8054L140.339 97.794L140.403 97.7332L140.332 97.7789L74.7166 -13.8287L24.5258 -14.3559L-7.10122 50.3207L71.8843 23.2797L71.9841 23.3032L140.475 97.6733L140.403 97.7332L140.332 97.7789L140.403 97.7332Z" fill="#6E6E6E"/>
<path d="M185.978 131.782L220.227 14.0639L220.319 13.9997L220.401 14.0754L236.091 114.718L261.029 131.734L261.053 131.857L260.929 131.881L235.958 114.844L235.92 114.784L220.287 14.4991L186.15 131.832L186.043 131.893L185.978 131.782Z" fill="#6E6E6E"/>
<path d="M235.977 114.687L297.489 91.5767L248.457 69.1924L248.412 69.0754L277.95 1.37176L220.332 14.1759L220.226 14.1082L220.293 14.0019L278.082 1.15987L278.17 1.19055L278.183 1.28258L248.611 69.0662L297.758 91.5032L297.811 91.5877L297.753 91.6682L236.04 114.854L235.925 114.802L235.977 114.687Z" fill="#6E6E6E"/>
<path d="M9.40772 -126.547L92.5882 -145.81L92.6952 -145.744L113.385 -63.2444L113.342 -63.1459L113.235 -63.158L66.5189 -107.118L9.53611 -126.33L18.4756 -58.1083L66.5046 -107.259L66.5974 -107.281L66.6545 -107.205L74.8449 -14.0431L174.763 -52.3572L174.863 -52.3244L220.386 14.0381L220.392 14.048L248.573 69.0702L248.58 69.1346L236.118 114.71L291.584 131.691L297.633 91.571L297.693 91.5002L297.783 91.5203L339.441 131.667L366.964 88.3248L367.025 88.2847L367.095 88.3025L421.249 131.682L476.117 64.8558L424.911 110.449L421.349 131.821L421.246 131.895L421.174 131.792L424.741 110.389L424.769 110.337L476.851 63.9627L476.972 63.9657L476.979 64.0861L421.331 131.863L421.206 131.877L367.062 88.5046L339.533 131.855L339.469 131.895L339.396 131.871L297.783 91.7686L291.745 131.82L291.704 131.883L291.631 131.892L235.982 114.855L235.922 114.747L248.399 69.1209L220.236 14.1344L174.756 -52.166L74.802 -13.8341L74.7236 -13.8419L74.6808 -13.9097L66.4904 -106.996L18.4685 -57.8521L18.3828 -57.83L18.3187 -57.9028L9.34348 -126.448L9.37205 -126.529L9.45765 -126.544L66.5903 -107.281L66.626 -107.262L113.135 -63.4962L92.5383 -145.617L9.45048 -126.373L9.34348 -126.44L9.40772 -126.547Z" fill="#6E6E6E"/>
<path d="M84.3984 65.8137C82.1082 65.8137 82.1011 62.2465 84.3984 62.2465C86.6957 62.2465 86.7028 65.8137 84.3984 65.8137Z" fill="#6E6E6E"/>
<path d="M219.956 15.8726C217.661 15.8726 217.657 12.3054 219.956 12.3054C222.251 12.3054 222.255 15.8726 219.956 15.8726Z" fill="#6E6E6E"/>
<path d="M248.494 71.1645C246.199 71.1645 246.195 67.5973 248.494 67.5973C250.789 67.5973 250.793 71.1645 248.494 71.1645Z" fill="#6E6E6E"/>
<path d="M294.154 37.2758C292.777 37.2758 292.774 35.1355 294.154 35.1355C295.532 35.1355 295.533 37.2758 294.154 37.2758Z" fill="#6E6E6E"/>
<path d="M138.62 50.8314C137.243 50.8314 137.243 48.6911 138.62 48.6911C140.004 48.6911 140.004 50.8314 138.62 50.8314Z" fill="#6E6E6E"/>
<path d="M26.6089 69.7374C25.232 69.7374 25.232 67.5971 26.6089 67.5971C27.993 67.5971 27.993 69.7374 26.6089 69.7374Z" fill="#6E6E6E"/>
<path d="M154.202 42.7458C152.825 42.7458 152.818 40.6055 154.202 40.6055C155.579 40.6055 155.579 42.7458 154.202 42.7458Z" fill="#6E6E6E"/>
<path d="M231.728 58.9167C230.35 58.9167 230.348 56.7763 231.728 56.7763C233.106 56.7763 233.107 58.9167 231.728 58.9167Z" fill="#6E6E6E"/>
<path d="M406.279 50.4745L406.296 50.3868L476.927 63.9422L477 64.0285L476.93 64.1169L367.059 88.4596L366.961 88.4147L366.978 88.3085L406.217 50.4103L406.296 50.3868L406.279 50.4745L406.341 50.5387L367.33 88.2171L476.47 64.0364L406.262 50.5623L406.279 50.4745L406.341 50.5387L406.279 50.4745Z" fill="#6E6E6E"/>
</g>
<path d="M552 32.5871L512 26L526.414 51L552 32.5871Z" fill="url(#paint0_linear)"/>
<path d="M458.967 112.859L517.075 71.1826L467.913 57.9792L458.967 112.859Z" fill="url(#paint1_linear)"/>
<path d="M67.0798 107.038L29.4151 29.9538L91.5977 69.5839L67.0798 107.038Z" fill="url(#paint2_linear)" stroke="url(#paint3_linear)"/>
<path d="M67.9738 16.3825L82.9705 31.1255L82.0611 -4.13927L67.9738 16.3825Z" stroke="url(#paint4_linear)"/>
<path d="M479.425 28.0543L462.885 36.291L473.24 7.07598L479.425 28.0543Z" stroke="url(#paint5_linear)"/>
</g>
<defs>
<linearGradient id="paint0_linear" x1="553.799" y1="34.3789" x2="545.969" y2="58.8515" gradientUnits="userSpaceOnUse">
<stop stop-color="#1D4FA5"/>
<stop offset="1" stop-color="#094F8C"/>
</linearGradient>
<linearGradient id="paint1_linear" x1="454.487" y1="112.868" x2="433.729" y2="72.5768" gradientUnits="userSpaceOnUse">
<stop stop-color="#1D4FA5"/>
<stop offset="1" stop-color="#094F8C"/>
</linearGradient>
<linearGradient id="paint2_linear" x1="85.7314" y1="97.4766" x2="32.6413" y2="40.0013" gradientUnits="userSpaceOnUse">
<stop stop-color="#678B05"/>
<stop offset="1" stop-color="#87AF1B"/>
</linearGradient>
<linearGradient id="paint3_linear" x1="85.7314" y1="97.4766" x2="32.6413" y2="40.0013" gradientUnits="userSpaceOnUse">
<stop stop-color="#678B05"/>
<stop offset="1" stop-color="#87AF1B"/>
</linearGradient>
<linearGradient id="paint4_linear" x1="73.3586" y1="-7.5944" x2="90.2494" y2="-3.46864" gradientUnits="userSpaceOnUse">
<stop stop-color="#1D4FA5"/>
<stop offset="1" stop-color="#094F8C"/>
</linearGradient>
<linearGradient id="paint5_linear" x1="469.384" y1="39.4789" x2="470.633" y2="9.72846" gradientUnits="userSpaceOnUse">
<stop stop-color="#678B05"/>
<stop offset="1" stop-color="#87AF1B"/>
</linearGradient>
<clipPath id="clip0">
<rect width="540" height="84" fill="white"/>
</clipPath>
</defs>
</svg>
