<svg width="40" height="40" viewBox="0 0 40 40" fill="none" xmlns="http://www.w3.org/2000/svg">
<circle cx="20" cy="20" r="20" fill="#EEEEEE"/>
<path fill-rule="evenodd" clip-rule="evenodd" d="M20 8.33398C13.56 8.33398 8.33331 13.5607 8.33331 20.0007C8.33331 26.4407 13.56 31.6673 20 31.6673C26.44 31.6673 31.6666 26.4407 31.6666 20.0007C31.6666 13.5607 26.44 8.33398 20 8.33398ZM10.6666 20.0007C10.6666 14.844 14.8433 10.6673 20 10.6673C22.1583 10.6673 24.1416 11.4023 25.7166 12.639L12.6383 25.7173C11.4016 24.1423 10.6666 22.159 10.6666 20.0007ZM14.2833 27.3623C15.8583 28.599 17.8416 29.334 20 29.334C25.1566 29.334 29.3333 25.1573 29.3333 20.0007C29.3333 17.8423 28.5983 15.859 27.3616 14.284L14.2833 27.3623Z" fill="url(#paint0_linear)"/>
<defs>
<linearGradient id="paint0_linear" x1="19.9617" y1="31.6363" x2="19.9617" y2="8.33398" gradientUnits="userSpaceOnUse">
<stop stop-color="#8B0517"/>
<stop offset="1" stop-color="#AF1B2F"/>
</linearGradient>
</defs>
</svg>
