<svg width="40" height="40" viewBox="0 0 40 40" fill="none" xmlns="http://www.w3.org/2000/svg">
<circle cx="20" cy="20" r="20" fill="#EEEEEE"/>
<path d="M27.3833 12.5162V17.6376C27.3833 17.6376 26.2758 17.8518 26.0433 17.8824C25.8169 17.913 25.101 18.1394 24.5809 17.6438C23.7793 16.8912 20.9341 14.0949 20.9341 14.0949C20.9341 14.0949 20.4446 13.6176 19.6553 14.0337C18.9333 14.4069 17.8625 14.9576 17.4158 15.1718C16.5714 15.6184 15.8678 14.9148 15.8678 14.3764C15.8678 13.9603 16.1309 13.6727 16.5102 13.4647C17.5321 12.8528 19.6798 11.6657 20.5792 11.1946C21.1238 10.907 21.5154 10.8825 22.2619 11.5066C23.1797 12.2715 23.9996 12.969 23.9996 12.969C23.9996 12.969 24.2689 13.1893 24.6972 13.0975C25.7435 12.8772 27.3833 12.5162 27.3833 12.5162ZM16.0636 21.1927C16.1982 20.8439 16.1554 20.4523 15.8861 20.1831C15.6536 19.9444 15.3048 19.8833 14.9744 19.9567C15.0662 19.6324 15.0173 19.2897 14.7786 19.045C14.54 18.8064 14.1912 18.7452 13.8608 18.8186C13.9526 18.4943 13.9036 18.1517 13.665 17.9069C13.2918 17.5275 12.6432 17.5459 12.221 17.9436C11.7988 18.3474 11.5296 19.0695 11.9028 19.4978C12.2822 19.9261 12.7105 19.663 13.0409 19.5896C12.9491 19.9139 12.6738 20.2137 13.0164 20.6359C13.353 21.0581 13.8241 20.8011 14.1545 20.7277C14.0627 21.052 13.7996 21.3823 14.1239 21.7739C14.4543 22.1655 14.9928 21.9575 15.3477 21.8474C15.2069 22.1961 14.9132 22.5755 15.2926 22.9916C15.672 23.4138 16.5408 23.218 16.963 22.8202C17.3913 22.4225 17.4281 21.7862 17.0548 21.4068C16.7978 21.1437 16.4123 21.0826 16.0636 21.1927ZM23.8161 18.531C20.7444 15.4961 22.1885 16.9218 20.5364 15.2881C20.5364 15.2881 20.0408 14.7986 19.3861 15.08C18.9272 15.282 18.3336 15.5512 17.887 15.7592C17.3975 16.0101 17.0426 16.0896 16.8774 16.0896C15.9351 16.0835 15.1641 15.3308 15.1641 14.4008C15.1641 13.795 15.4945 13.2688 15.9779 12.969C16.6571 12.504 18.2296 11.678 18.2296 11.678C18.2296 11.678 17.7524 11.0783 16.706 11.0783C15.6536 11.0783 13.4631 12.4917 13.4631 12.4917C13.4631 12.4917 12.8451 12.8895 11.9579 12.5346L10.2507 11.9472V17.809C10.2507 17.809 10.7402 17.9436 11.1747 18.1211C11.2726 17.8457 11.4378 17.5887 11.6581 17.3746C12.3801 16.6893 13.5855 16.6831 14.2463 17.3562C14.4482 17.5581 14.5889 17.8028 14.6563 18.0721C14.9255 18.1516 15.1641 18.2985 15.3599 18.4943C15.5618 18.6962 15.6964 18.941 15.7699 19.2102C16.033 19.2959 16.2777 19.4366 16.4735 19.6324C16.6877 19.8588 16.8345 20.128 16.9018 20.4217C17.1833 20.5013 17.4342 20.6481 17.6361 20.85C18.0338 21.2538 18.1746 21.8046 18.0889 22.3308C18.1011 22.3369 18.3398 22.6061 18.4866 22.7529C18.7803 23.0405 19.2576 23.0405 19.5513 22.7529C19.845 22.4654 19.845 21.9942 19.5513 21.7005C19.539 21.6883 18.4927 20.6114 18.5784 20.5257C18.6641 20.44 19.9979 21.8106 20.0224 21.8351C20.3161 22.1288 20.7934 22.1288 21.0871 21.8351C21.3808 21.5475 21.3808 21.0764 21.0871 20.7888C21.0687 20.7705 21.0137 20.7154 20.9892 20.6909C20.9892 20.6909 19.6675 19.5284 19.7654 19.4305C19.8694 19.3326 21.5093 20.8439 21.5154 20.8439C21.8091 21.107 22.2619 21.107 22.5495 20.8255C22.8248 20.5502 22.8309 20.1218 22.5862 19.8281C22.5801 19.8159 21.3318 18.531 21.4297 18.4331C21.5276 18.3352 22.7636 19.5896 22.7636 19.5896C23.0573 19.8772 23.5346 19.8772 23.8283 19.5896C24.122 19.302 24.122 18.8308 23.8283 18.5371C23.8283 18.5371 23.8222 18.531 23.8161 18.531Z" fill="url(#paint0_linear)"/>
<path fill-rule="evenodd" clip-rule="evenodd" d="M25.2178 20.4336C26.0683 20.4336 26.8638 20.6477 27.5858 21.076C28.3139 21.5043 28.8891 22.0795 29.3174 22.8077C29.7457 23.5358 29.9599 24.3251 29.9599 25.1756C29.9599 26.0323 29.7457 26.8216 29.3174 27.5497C28.8891 28.2779 28.3139 28.853 27.5858 29.2813C26.8638 29.7096 26.0683 29.9177 25.2178 29.9177C24.3612 29.9177 23.5719 29.7096 22.8437 29.2813C22.1217 28.853 21.5404 28.2779 21.1121 27.5497C20.6899 26.8216 20.4758 26.0323 20.4758 25.1756C20.4758 24.3251 20.6899 23.5358 21.1121 22.8077C21.5404 22.0795 22.1217 21.5043 22.8437 21.076C23.5719 20.6477 24.3612 20.4336 25.2178 20.4336ZM26.307 27.1275C26.3559 27.1642 26.4171 27.1826 26.4783 27.1642C26.5395 27.152 26.5945 27.1214 26.6313 27.0725L27.1697 26.3443C27.2064 26.2953 27.2187 26.2342 27.2125 26.173C27.2064 26.1118 27.182 26.0568 27.1269 26.02L25.9031 25.1389V22.5017C25.9031 22.4406 25.8848 22.3855 25.8358 22.3365C25.793 22.2937 25.7379 22.2692 25.6767 22.2692H24.7589C24.6916 22.2692 24.6365 22.2937 24.5937 22.3365C24.5509 22.3855 24.5264 22.4406 24.5264 22.5017V25.7141C24.5264 25.7875 24.557 25.8548 24.6243 25.9037L26.307 27.1275Z" fill="url(#paint1_linear)"/>
<defs>
<linearGradient id="paint0_linear" x1="27.234" y1="23.2308" x2="10.4" y2="11" gradientUnits="userSpaceOnUse">
<stop stop-color="#0A3B8C"/>
<stop offset="1" stop-color="#1E50A6"/>
</linearGradient>
<linearGradient id="paint1_linear" x1="25.2178" y1="29.9164" x2="25.2178" y2="20.4349" gradientUnits="userSpaceOnUse">
<stop stop-color="#688B06"/>
<stop offset="1" stop-color="#88AF1B"/>
</linearGradient>
</defs>
</svg>
