<svg width="40" height="40" viewBox="0 0 40 40" fill="none" xmlns="http://www.w3.org/2000/svg">
<circle cx="20" cy="20" r="20" fill="#EEEEEE"/>
<path d="M21.1421 13.4642C22.1476 13.4642 23.3766 13.129 24.8291 12.4586C25.1456 12.3097 25.4622 12.3283 25.7726 12.5207C26.0891 12.7069 26.2443 12.9924 26.2443 13.371V21.0307C26.2443 21.3907 26.1015 21.6638 25.8036 21.85C24.5684 22.7128 23.2835 23.141 21.9614 23.141C21.4586 23.141 20.931 23.079 20.3848 22.9548C20.0682 22.8928 19.6151 22.7562 19.0316 22.5452C18.5227 22.3776 18.144 22.2597 17.8957 22.1976C17.4736 22.0921 17.0826 22.0424 16.7288 22.0424C15.4253 22.0424 14.2273 22.2783 13.1349 22.7624V25.7294C13.1349 25.9405 13.0604 26.1143 12.9114 26.2632C12.7687 26.4122 12.5886 26.4867 12.3776 26.4867H11.8748C11.6638 26.4867 11.4838 26.4122 11.3348 26.2632C11.192 26.1143 11.1176 25.9405 11.1176 25.7294V13.5635C10.8879 13.3897 10.7017 13.1849 10.5651 12.9304C10.4286 12.6759 10.3603 12.4028 10.3603 12.111C10.3603 11.6082 10.5403 11.18 10.8941 10.8324C11.2541 10.4848 11.6824 10.3234 12.1914 10.3482C12.6507 10.3668 13.048 10.5344 13.3707 10.851C13.6997 11.1675 13.8673 11.5462 13.8921 11.9869C13.9108 12.26 13.8673 12.5083 13.768 12.7379C14.457 12.4897 15.1708 12.3655 15.9095 12.3655C16.4122 12.3655 16.9398 12.4276 17.4861 12.5517C17.8026 12.6386 18.2495 12.7752 18.8392 12.9614C19.342 13.129 19.7206 13.2469 19.9751 13.309C20.3972 13.4145 20.782 13.4642 21.1421 13.4642Z" fill="url(#paint0_linear)"/>
<path d="M29.7818 22.0739L28.7514 21.0125C28.6086 20.8635 28.4348 20.7891 28.23 20.7891C28.0314 20.7891 27.8576 20.8635 27.7148 21.0125L22.7243 26.1582L20.4897 23.843C20.347 23.7002 20.1732 23.6257 19.9745 23.6257C19.7697 23.6257 19.5959 23.7002 19.4531 23.843L18.4228 24.9106C18.28 25.0596 18.2055 25.2334 18.2055 25.4444C18.2055 25.6554 18.28 25.8292 18.4228 25.9782L21.1725 28.8149L22.2091 29.8763C22.3519 30.0253 22.5195 30.0997 22.7243 30.0997C22.9291 30.0997 23.1029 30.0253 23.2457 29.8763L24.2761 28.8149L29.7818 23.1415C29.9245 22.9926 29.999 22.8188 29.999 22.6077C29.999 22.3967 29.9245 22.2229 29.7818 22.0739Z" fill="url(#paint1_linear)"/>
<defs>
<linearGradient id="paint0_linear" x1="18.3023" y1="26.4862" x2="18.3023" y2="10.3457" gradientUnits="userSpaceOnUse">
<stop stop-color="#8C0618"/>
<stop offset="1" stop-color="#B01B30"/>
</linearGradient>
<linearGradient id="paint1_linear" x1="24.1023" y1="30.0985" x2="24.1023" y2="20.7903" gradientUnits="userSpaceOnUse">
<stop stop-color="#688B06"/>
<stop offset="1" stop-color="#88AF1B"/>
</linearGradient>
</defs>
</svg>
