<svg width="40" height="40" viewBox="0 0 40 40" fill="none" xmlns="http://www.w3.org/2000/svg">
<circle cx="20" cy="20" r="20" fill="#EEEEEE"/>
<path d="M20.9885 13.1782C22.0134 13.1782 23.2659 12.8366 24.7462 12.1533C25.0689 12.0015 25.3915 12.0206 25.7078 12.2167C26.0304 12.4064 26.1886 12.6974 26.1886 13.0833V20.8897C26.1886 21.2566 26.0431 21.5349 25.7394 21.7247C24.4805 22.604 23.171 23.0406 21.8236 23.0406C21.3112 23.0406 20.7734 22.9773 20.2167 22.8508C19.8941 22.7875 19.4323 22.6483 18.8377 22.4332C18.3189 22.2624 17.933 22.1423 17.68 22.079C17.2498 21.9715 16.8513 21.9209 16.4907 21.9209C15.1622 21.9209 13.9413 22.1613 12.8279 22.6547V25.6785C12.8279 25.8936 12.752 26.0707 12.6001 26.2225C12.4546 26.3744 12.2712 26.4503 12.0561 26.4503H11.5437C11.3286 26.4503 11.1451 26.3744 10.9933 26.2225C10.8478 26.0707 10.7719 25.8936 10.7719 25.6785V13.2794C10.5378 13.1023 10.3481 12.8935 10.2089 12.6341C10.0697 12.3748 10.0001 12.0964 10.0001 11.7991C10.0001 11.2867 10.1836 10.8502 10.5442 10.4959C10.9111 10.1416 11.3476 9.97723 11.8663 10.0025C12.3344 10.0215 12.7393 10.1923 13.0683 10.5149C13.4036 10.8375 13.5744 11.2234 13.5997 11.6725C13.6186 11.9509 13.5744 12.204 13.4731 12.4381C14.1753 12.185 14.9028 12.0585 15.6556 12.0585C16.1681 12.0585 16.7058 12.1217 17.2625 12.2482C17.5851 12.3368 18.0406 12.476 18.6416 12.6658C19.154 12.8366 19.5399 12.9567 19.7992 13.02C20.2294 13.1276 20.6216 13.1782 20.9885 13.1782Z" fill="black"/>
<path d="M20.9885 13.1782C22.0134 13.1782 23.2659 12.8366 24.7462 12.1533C25.0689 12.0015 25.3915 12.0206 25.7078 12.2167C26.0304 12.4064 26.1886 12.6974 26.1886 13.0833V20.8897C26.1886 21.2566 26.0431 21.5349 25.7394 21.7247C24.4805 22.604 23.171 23.0406 21.8236 23.0406C21.3112 23.0406 20.7734 22.9773 20.2167 22.8508C19.8941 22.7875 19.4323 22.6483 18.8377 22.4332C18.3189 22.2624 17.933 22.1423 17.68 22.079C17.2498 21.9715 16.8513 21.9209 16.4907 21.9209C15.1622 21.9209 13.9413 22.1613 12.8279 22.6547V25.6785C12.8279 25.8936 12.752 26.0707 12.6001 26.2225C12.4546 26.3744 12.2712 26.4503 12.0561 26.4503H11.5437C11.3286 26.4503 11.1451 26.3744 10.9933 26.2225C10.8478 26.0707 10.7719 25.8936 10.7719 25.6785V13.2794C10.5378 13.1023 10.3481 12.8935 10.2089 12.6341C10.0697 12.3748 10.0001 12.0964 10.0001 11.7991C10.0001 11.2867 10.1836 10.8502 10.5442 10.4959C10.9111 10.1416 11.3476 9.97723 11.8663 10.0025C12.3344 10.0215 12.7393 10.1923 13.0683 10.5149C13.4036 10.8375 13.5744 11.2234 13.5997 11.6725C13.6186 11.9509 13.5744 12.204 13.4731 12.4381C14.1753 12.185 14.9028 12.0585 15.6556 12.0585C16.1681 12.0585 16.7058 12.1217 17.2625 12.2482C17.5851 12.3368 18.0406 12.476 18.6416 12.6658C19.154 12.8366 19.5399 12.9567 19.7992 13.02C20.2294 13.1276 20.6216 13.1782 20.9885 13.1782Z" fill="url(#paint0_linear)"/>
<path fill-rule="evenodd" clip-rule="evenodd" d="M29.4842 27.6404C29.0414 28.3932 28.4467 28.9879 27.6939 29.4307C26.9475 29.8735 26.1251 30.0886 25.2457 30.0886C24.3601 30.0886 23.544 29.8735 22.7912 29.4307C22.0447 28.9879 21.4438 28.3932 21.0009 27.6404C20.5644 26.8876 20.343 26.0716 20.343 25.1859C20.343 24.3066 20.5644 23.4905 21.0009 22.7377C21.4438 21.9849 22.0447 21.3902 22.7912 20.9474C23.544 20.5046 24.3601 20.2832 25.2457 20.2832C26.1251 20.2832 26.9475 20.5046 27.6939 20.9474C28.4467 21.3902 29.0414 21.9849 29.4842 22.7377C29.927 23.4905 30.1484 24.3066 30.1484 25.1859C30.1484 26.0716 29.927 26.8876 29.4842 27.6404ZM24.6005 26.4448C24.4233 26.6219 24.3348 26.837 24.3348 27.0837C24.3348 27.3368 24.4233 27.5518 24.6005 27.7289C24.7776 27.9061 24.9927 27.9947 25.2457 27.9947C25.4924 27.9947 25.7075 27.9061 25.8847 27.7289C26.0618 27.5518 26.1567 27.3368 26.1567 27.0837C26.1567 26.837 26.0618 26.6219 25.8847 26.4448C25.7075 26.2677 25.4924 26.1791 25.2457 26.1791C24.9927 26.1791 24.7776 26.2677 24.6005 26.4448ZM24.5309 25.6034C24.5309 25.654 24.5562 25.7046 24.6005 25.7489C24.6448 25.7995 24.7017 25.8185 24.7713 25.8185H25.7202C25.7834 25.8185 25.8404 25.7995 25.8847 25.7489C25.9353 25.7046 25.9543 25.654 25.9543 25.6034L26.1124 22.9148C26.1124 22.8389 26.0934 22.7757 26.0428 22.7251C25.9985 22.6808 25.9416 22.6555 25.8783 22.6555H24.6131C24.5435 22.6555 24.4866 22.6808 24.4423 22.7251C24.398 22.7757 24.3727 22.8389 24.3727 22.9148L24.5309 25.6034Z" fill="#05172D"/>
<defs>
<linearGradient id="paint0_linear" x1="18.0943" y1="26.4498" x2="18.0943" y2="10" gradientUnits="userSpaceOnUse">
<stop stop-color="#8C0618"/>
<stop offset="1" stop-color="#B01B30"/>
</linearGradient>
</defs>
</svg>
