<svg width="40" height="36" viewBox="0 0 40 36" fill="none" xmlns="http://www.w3.org/2000/svg">
<circle cx="20" cy="20" r="20" fill="#EEEEEE"/>
<path d="M21.5358 12.3368C22.6117 12.3368 23.9267 11.9782 25.4809 11.2609C25.8196 11.1015 26.1583 11.1213 26.4904 11.3272C26.8291 11.5265 26.9952 11.8321 26.9952 12.2372V20.4329C26.9952 20.8181 26.8424 21.1104 26.5236 21.3096C25.2019 22.2328 23.8271 22.6911 22.4125 22.6911C21.8745 22.6911 21.3099 22.6247 20.7255 22.4918C20.3868 22.4254 19.9019 22.2794 19.2776 22.0535C18.733 21.8742 18.3279 21.748 18.0622 21.6816C17.6106 21.5687 17.1921 21.5155 16.8136 21.5155C15.4188 21.5155 14.137 21.7679 12.9681 22.2859V25.4606C12.9681 25.6864 12.8884 25.8725 12.729 26.0319C12.5762 26.1913 12.3836 26.2709 12.1578 26.2709H11.6198C11.394 26.2709 11.2014 26.1913 11.042 26.0319C10.8892 25.8725 10.8095 25.6864 10.8095 25.4606V12.4431C10.5638 12.2572 10.3646 12.038 10.2184 11.7657C10.0723 11.4934 9.99927 11.2011 9.99927 10.8889C9.99927 10.351 10.1919 9.89265 10.5704 9.52072C10.9557 9.14879 11.4139 8.97609 11.9585 9.00266C12.45 9.02258 12.8751 9.20194 13.2205 9.54067C13.5725 9.87939 13.7518 10.2846 13.7783 10.7561C13.7983 11.0484 13.7518 11.314 13.6455 11.5597C14.3827 11.2941 15.1465 11.1612 15.9369 11.1612C16.4748 11.1612 17.0394 11.2276 17.6238 11.3605C17.9626 11.4534 18.4408 11.5995 19.0717 11.7988C19.6097 11.9781 20.0148 12.1043 20.2871 12.1707C20.7388 12.2836 21.1506 12.3368 21.5358 12.3368Z" fill="#666666"/>
<path fill-rule="evenodd" clip-rule="evenodd" d="M29.7911 28.1833C29.3261 28.9736 28.7018 29.5978 27.9115 30.0627C27.1278 30.5277 26.2644 30.7535 25.3412 30.7535C24.4113 30.7535 23.5546 30.5277 22.7642 30.0627C21.9805 29.5978 21.3496 28.9736 20.8846 28.1833C20.4264 27.3929 20.1939 26.5361 20.1939 25.6062C20.1939 24.6831 20.4264 23.8264 20.8846 23.036C21.3496 22.2457 21.9805 21.6213 22.7642 21.1564C23.5546 20.6915 24.4113 20.459 25.3412 20.459C26.2644 20.459 27.1278 20.6915 27.9115 21.1564C28.7018 21.6213 29.3261 22.2457 29.7911 23.036C30.256 23.8264 30.4884 24.6831 30.4884 25.6062C30.4884 26.5361 30.256 27.3929 29.7911 28.1833ZM24.6637 26.9279C24.4778 27.1139 24.3848 27.3397 24.3848 27.5987C24.3848 27.8644 24.4778 28.0902 24.6637 28.2762C24.8497 28.4622 25.0755 28.5552 25.3412 28.5552C25.6002 28.5552 25.826 28.4622 26.012 28.2762C26.1979 28.0902 26.2976 27.8644 26.2976 27.5987C26.2976 27.3397 26.1979 27.1139 26.012 26.9279C25.826 26.742 25.6002 26.649 25.3412 26.649C25.0755 26.649 24.8497 26.742 24.6637 26.9279ZM24.5907 26.0447C24.5907 26.0978 24.6172 26.1509 24.6637 26.1974C24.7102 26.2506 24.77 26.2704 24.843 26.2704H25.8393C25.9057 26.2704 25.9655 26.2506 26.012 26.1974C26.0651 26.1509 26.085 26.0978 26.085 26.0447L26.2511 23.222C26.2511 23.1423 26.2311 23.0759 26.178 23.0227C26.1315 22.9762 26.0717 22.9496 26.0053 22.9496H24.677C24.6039 22.9496 24.5442 22.9762 24.4977 23.0227C24.4512 23.0759 24.4246 23.1423 24.4246 23.222L24.5907 26.0447Z" fill="black"/>
<path fill-rule="evenodd" clip-rule="evenodd" d="M29.7911 28.1833C29.3261 28.9736 28.7018 29.5978 27.9115 30.0627C27.1278 30.5277 26.2644 30.7535 25.3412 30.7535C24.4113 30.7535 23.5546 30.5277 22.7642 30.0627C21.9805 29.5978 21.3496 28.9736 20.8846 28.1833C20.4264 27.3929 20.1939 26.5361 20.1939 25.6062C20.1939 24.6831 20.4264 23.8264 20.8846 23.036C21.3496 22.2457 21.9805 21.6213 22.7642 21.1564C23.5546 20.6915 24.4113 20.459 25.3412 20.459C26.2644 20.459 27.1278 20.6915 27.9115 21.1564C28.7018 21.6213 29.3261 22.2457 29.7911 23.036C30.256 23.8264 30.4884 24.6831 30.4884 25.6062C30.4884 26.5361 30.256 27.3929 29.7911 28.1833ZM24.6637 26.9279C24.4778 27.1139 24.3848 27.3397 24.3848 27.5987C24.3848 27.8644 24.4778 28.0902 24.6637 28.2762C24.8497 28.4622 25.0755 28.5552 25.3412 28.5552C25.6002 28.5552 25.826 28.4622 26.012 28.2762C26.1979 28.0902 26.2976 27.8644 26.2976 27.5987C26.2976 27.3397 26.1979 27.1139 26.012 26.9279C25.826 26.742 25.6002 26.649 25.3412 26.649C25.0755 26.649 24.8497 26.742 24.6637 26.9279ZM24.5907 26.0447C24.5907 26.0978 24.6172 26.1509 24.6637 26.1974C24.7102 26.2506 24.77 26.2704 24.843 26.2704H25.8393C25.9057 26.2704 25.9655 26.2506 26.012 26.1974C26.0651 26.1509 26.085 26.0978 26.085 26.0447L26.2511 23.222C26.2511 23.1423 26.2311 23.0759 26.178 23.0227C26.1315 22.9762 26.0717 22.9496 26.0053 22.9496H24.677C24.6039 22.9496 24.5442 22.9762 24.4977 23.0227C24.4512 23.0759 24.4246 23.1423 24.4246 23.222L24.5907 26.0447Z" fill="url(#paint0_linear)"/>
<defs>
<linearGradient id="paint0_linear" x1="30.3987" y1="30.7557" x2="18.2193" y2="24.4397" gradientUnits="userSpaceOnUse">
<stop stop-color="#0A3B8C"/>
<stop offset="1" stop-color="#1E50A6"/>
</linearGradient>
</defs>
</svg>
