<svg width="147" height="115" viewBox="0 0 147 115" fill="none" xmlns="http://www.w3.org/2000/svg">
<ellipse cx="73.1655" cy="109.758" rx="73.1655" ry="4.26207" fill="#E1E1E1"/>
<g clip-path="url(#clip0)">
<rect x="30.7275" y="22.3492" width="74.0317" height="61.4603" fill="#CCCCCC"/>
<rect x="30.7275" y="6.98413" width="74.0317" height="15.3651" fill="white"/>
<rect x="86.6006" y="1.39685" width="9.77778" height="11.1746" fill="#CCCCCC"/>
<rect x="40.5059" y="1.39685" width="9.77778" height="11.1746" fill="#CCCCCC"/>
<rect x="41.9023" y="33.5238" width="51.6825" height="39.1111" fill="white"/>
<ellipse cx="97.0775" cy="69.1429" rx="17.4603" ry="17.4603" fill="white"/>
<path d="M105.325 61.3464C104.741 60.7632 103.799 60.7632 103.216 61.3464L97.9415 66.6205L92.6675 61.3464C92.0843 60.7632 91.1417 60.7632 90.5585 61.3464C89.9753 61.9296 89.9753 62.8722 90.5585 63.4554L95.8325 68.7295L90.5585 74.0035C89.9753 74.5867 89.9753 75.5293 90.5585 76.1125C90.8493 76.4034 91.2312 76.5495 91.613 76.5495C91.9948 76.5495 92.3767 76.4034 92.6675 76.1125L97.9415 70.8385L103.216 76.1125C103.506 76.4034 103.888 76.5495 104.27 76.5495C104.652 76.5495 105.034 76.4034 105.325 76.1125C105.908 75.5293 105.908 74.5867 105.325 74.0035L100.051 68.7295L105.325 63.4554C105.906 62.8722 105.906 61.9296 105.325 61.3464Z" fill="#666666"/>
<path d="M106.89 51.4263V22.3729V7.45763C106.89 6.63281 106.222 5.9661 105.399 5.9661H97.9412V1.49153C97.9412 0.666712 97.273 0 96.4497 0H86.009C85.1857 0 84.5175 0.666712 84.5175 1.49153V5.9661H51.7039V1.49153C51.7039 0.666712 51.0357 0 50.2124 0H39.7717C38.9484 0 38.2802 0.666712 38.2802 1.49153V5.9661H30.8226C29.9993 5.9661 29.3311 6.63281 29.3311 7.45763V22.3729V83.5254C29.3311 84.3502 29.9993 85.017 30.8226 85.017H87.6557C90.6417 86.8963 94.1617 88 97.9412 88C108.632 88 117.331 79.3014 117.331 68.6102C117.331 61.1481 113.086 54.6659 106.89 51.4263ZM87.5005 2.98305H94.9582V7.45763V11.9322H87.5005V7.45763V2.98305ZM41.2633 2.98305H48.7209V7.45763V11.9322H41.2633V7.45763V2.98305ZM32.3141 8.94915H38.2802V13.4237C38.2802 14.2485 38.9484 14.9153 39.7717 14.9153H50.2124C51.0357 14.9153 51.7039 14.2485 51.7039 13.4237V8.94915H84.5175V13.4237C84.5175 14.2485 85.1857 14.9153 86.009 14.9153H96.4497C97.273 14.9153 97.9412 14.2485 97.9412 13.4237V8.94915H103.907V20.8814H32.3141V8.94915ZM32.3141 82.0339V23.8644H103.907V50.169C103.615 50.075 103.317 49.9989 103.018 49.9169C102.742 49.8408 102.467 49.7662 102.188 49.7021C101.936 49.6454 101.68 49.5962 101.425 49.55C101.061 49.4828 100.696 49.4277 100.329 49.3814C100.125 49.3561 99.922 49.3277 99.7161 49.3083C99.1285 49.2561 98.5363 49.2203 97.9412 49.2203C97.4371 49.2203 96.9434 49.2576 96.4497 49.2964V47.7288V44.7458V31.322H83.026H80.0429H69.6022H66.6192H56.1785H53.1955H39.7717V44.7458V47.7288V58.1695V61.1525V74.5763H53.1955H56.1785H66.6192H69.6022H79.5C79.5433 74.7075 79.597 74.8343 79.6417 74.9641C79.767 75.3265 79.8908 75.6904 80.0384 76.0439C80.1205 76.2423 80.2174 76.4317 80.3069 76.6256C80.4784 77.0045 80.653 77.3818 80.8483 77.7487C80.9349 77.9083 81.0318 78.062 81.1228 78.2201C81.3435 78.6064 81.5673 78.9882 81.8149 79.3581C81.9058 79.4938 82.0058 79.6221 82.0997 79.7563C82.3622 80.1292 82.6307 80.4991 82.9216 80.8541C83.029 80.9854 83.1453 81.1077 83.2557 81.2359C83.4869 81.5044 83.7076 81.7788 83.9537 82.0354H32.3141V82.0339ZM89.4589 51.2011C89.2978 51.2786 89.1338 51.3517 88.9757 51.4338C88.6953 51.5799 88.4238 51.741 88.1523 51.9006C87.9152 52.0393 87.678 52.181 87.4469 52.3287C87.2127 52.4808 86.9845 52.6359 86.7578 52.797C86.4997 52.979 86.2492 53.1699 86.0001 53.3638C85.8002 53.5204 85.6003 53.6755 85.4079 53.8411C85.1469 54.0618 84.8978 54.296 84.6488 54.5302C84.4772 54.6927 84.2997 54.8494 84.1342 55.0164C83.8642 55.2909 83.6092 55.5817 83.3556 55.8725C83.2482 55.9963 83.1304 56.1097 83.0245 56.2365V47.7288H93.4652V49.7603C93.4398 49.7662 93.4159 49.7752 93.3921 49.7812C92.0184 50.1138 90.7029 50.5925 89.4589 51.2011ZM79.4016 62.9409C79.3494 63.1124 79.3151 63.2884 79.2673 63.4614C79.148 63.894 79.0257 64.3265 78.9362 64.7725C78.8661 65.117 78.8273 65.469 78.7766 65.818C78.7363 66.0999 78.6797 66.3774 78.6498 66.6637C78.5857 67.3066 78.5514 67.9569 78.5514 68.6102C78.5514 69.1486 78.5812 69.693 78.6305 70.2389C78.6394 70.3388 78.6394 70.4403 78.6498 70.5402C78.6737 70.7818 78.7214 71.016 78.7542 71.2546V71.2561C78.7707 71.3695 78.7766 71.4814 78.7945 71.5932H69.6022V61.1525H80.0429V61.163C80.028 61.1988 80.0191 61.2361 80.0041 61.2719C79.7804 61.8163 79.5761 62.3726 79.4016 62.9409ZM42.7548 61.1525H53.1955V71.5932H42.7548V61.1525ZM42.7548 47.7288H53.1955V58.1695H42.7548V47.7288ZM93.4666 44.7458H83.026V34.3051H93.4666V44.7458ZM80.0429 44.7458H69.6022V34.3051H80.0429V44.7458ZM80.0429 58.1695H69.6022V47.7288H80.0429V58.1695ZM56.1785 47.7288H66.6192V58.1695H56.1785V47.7288ZM66.6192 44.7458H56.1785V34.3051H66.6192V44.7458ZM53.1955 44.7458H42.7548V34.3051H53.1955V44.7458ZM56.1785 61.1525H66.6192V71.5932H56.1785V61.1525ZM97.9412 85.017C94.5734 85.017 91.4397 83.9938 88.8325 82.2457C88.3239 81.9056 87.8436 81.5357 87.3827 81.1479C87.2216 81.0107 87.0695 80.8645 86.9144 80.7214C86.6205 80.4544 86.3357 80.1799 86.0642 79.8951C85.8897 79.7116 85.7212 79.5252 85.5556 79.3357C85.311 79.0538 85.0813 78.763 84.8576 78.4662C84.7144 78.2767 84.5667 78.0933 84.431 77.8979C84.1014 77.4191 83.7911 76.9269 83.5137 76.4168C83.4496 76.2975 83.3989 76.1722 83.3377 76.0514C83.1199 75.6248 82.9171 75.1923 82.7366 74.7478C82.6591 74.5539 82.5919 74.3555 82.5203 74.1586C82.3801 73.7679 82.2519 73.3711 82.14 72.9699C82.1146 72.8774 82.0923 72.785 82.0684 72.6925C81.8999 72.0362 81.7761 71.3844 81.6881 70.7356C81.6821 70.6894 81.6732 70.6431 81.6672 70.5954C81.5807 69.9257 81.5344 69.262 81.5344 68.6102C81.5344 68.0449 81.5628 67.4841 81.6209 66.9277C81.6254 66.8815 81.6374 66.8367 81.6418 66.7905C81.6985 66.2819 81.7731 65.7748 81.8775 65.2751C81.8879 65.2274 81.9043 65.1812 81.9148 65.1334C82.0222 64.6382 82.149 64.146 82.3026 63.6598C82.3205 63.6031 82.3458 63.5479 82.3637 63.4913C82.5174 63.0259 82.6874 62.5635 82.8843 62.1101C83.0692 61.6835 83.2691 61.2644 83.4883 60.8572L83.636 60.6022C83.6957 60.4948 83.7658 60.3934 83.8284 60.2875C84.0879 59.8504 84.3654 59.4268 84.6592 59.0182C84.7323 58.9167 84.8083 58.8168 84.8844 58.7169C85.1529 58.3619 85.4363 58.0203 85.7316 57.6907C85.8345 57.5759 85.9374 57.4595 86.0433 57.3477C86.3357 57.0374 86.6429 56.7436 86.9576 56.4587C87.0695 56.3573 87.1784 56.2529 87.2932 56.1544C87.6631 55.8382 88.0464 55.5414 88.4417 55.2595C88.5043 55.2148 88.564 55.1656 88.6267 55.1208C90.5731 53.7755 92.8089 52.8537 95.2073 52.451L95.2386 52.4465C96.1186 52.2988 97.018 52.2034 97.9412 52.2034C98.5214 52.2034 99.0986 52.2347 99.6714 52.2974C99.7609 52.3063 99.8474 52.3272 99.9369 52.3376C100.426 52.3988 100.914 52.4719 101.396 52.5763C101.455 52.5897 101.512 52.6076 101.57 52.621C102.083 52.7388 102.592 52.8761 103.094 53.0446C103.129 53.0565 103.162 53.07 103.196 53.0819C103.71 53.2579 104.218 53.4593 104.72 53.6875C110.391 56.2738 114.348 61.9833 114.348 68.6102C114.348 77.6563 106.987 85.017 97.9412 85.017Z" fill="#666666"/>
</g>
<defs>
<clipPath id="clip0">
<rect width="88" height="88" fill="white" transform="translate(29.3311)"/>
</clipPath>
</defs>
</svg>
