<svg width="206" height="116" viewBox="0 0 206 116" fill="none" xmlns="http://www.w3.org/2000/svg">
<ellipse cx="103" cy="110" rx="103" ry="6" fill="#E1E1E1"/>
<path d="M101.115 54.4702L109.34 62.9842L97.2871 66.9293L101.115 54.4702ZM141.285 31.5363L140.042 32.7599L136.274 36.47L132.924 39.7679L113.517 58.8749L109.341 62.985L104.336 58.1819L100.779 54.7714L131.618 24.2288L132.828 23.0321C134 21.873 135.531 21.2926 137.063 21.2926C137.403 21.2926 137.746 21.3212 138.082 21.3791C139.246 21.5775 140.364 22.1195 141.272 23.0052C142.209 23.9211 142.78 25.0672 142.984 26.2622C143.304 28.1242 142.736 30.1062 141.285 31.5363Z" fill="#CCCCCC"/>
<path d="M132.922 39.7677L113.515 58.8748C113.004 57.3867 113.344 55.6741 114.535 54.488L128.351 40.722C129.587 39.4902 131.393 39.1726 132.922 39.7677Z" fill="#CCCCCC"/>
<path d="M141.284 31.5363L140.041 32.7599L136.272 36.47C133.47 33.6766 128.925 33.6766 126.123 36.47L104.334 58.1819L100.777 54.7714L131.617 24.2288L132.827 23.0321C133.998 21.873 135.529 21.2926 137.062 21.2926C137.402 21.2926 137.745 21.3212 138.081 21.3791L142.983 26.2622C143.303 28.1242 142.735 30.1062 141.284 31.5363Z" fill="#CCCCCC"/>
<path d="M141.284 31.5363L140.041 32.76L131.617 24.2288L132.827 23.0321C133.999 21.873 135.53 21.2926 137.062 21.2926C138.581 21.2926 140.101 21.8632 141.271 23.0052C143.664 25.3463 143.669 29.187 141.284 31.5363Z" fill="#CCCCCC"/>
<path d="M126.508 11.1876C126.508 11.4529 126.447 11.7067 126.326 11.9402L128.478 13.043C128.773 12.4733 128.928 11.8316 128.928 11.1876C128.928 8.94521 127.097 7.12079 124.847 7.12079H112.906V9.53213H124.847C125.763 9.53213 126.508 10.275 126.508 11.1876ZM106.408 7.12079H109.414V9.53213H106.408V7.12079ZM76.0234 28.6988H118.778V31.1101H76.0234V28.6988ZM76.0234 72.6564H118.778V75.0677H76.0234V72.6564ZM129.53 39.3417L136.21 32.6848L132.995 29.4808L131.283 31.1852L132.788 32.6848L127.819 37.6364L129.53 39.3417ZM128.018 40.8486L126.406 42.455L124.695 40.7498L126.307 39.1441L128.018 40.8486Z" fill="#666666"/>
<path fill-rule="evenodd" clip-rule="evenodd" d="M142.932 31.812L142.057 32.6846L141.639 33.101L140.346 34.3891L125.582 49.1012V84.7179H68.0058V76.3688H61V11.1866C61 6.67252 64.6856 3 69.2158 3H124.847C129.377 3 133.063 6.67252 133.063 11.1866C133.063 15.4542 129.769 18.9668 125.582 19.339V28.5166L130.018 24.0972L131.729 22.392L132.604 21.5201C135.204 18.9284 139.436 18.9284 142.037 21.5201L142.932 22.4124C144.192 23.6678 144.886 25.3372 144.886 27.1126C144.886 28.888 144.192 30.5566 142.932 31.812ZM123.162 82.3065V51.5125L116.118 58.5319H118.777V60.9432H113.698L110.432 64.1978L104.363 65.9904H118.777V68.4017H96.1994L95.7513 68.534L95.7906 68.4017H76.0225V65.9904H96.5083L98.0099 60.9432H76.0225V58.5319H98.7267L100.104 53.9051L100.526 53.4847H76.0225V51.0734H102.946L108.011 46.0262H76.0225V43.6149H110.431L115.496 38.5677H76.0225V36.1564H117.916L123.162 30.9288V19.3733H70.4257V82.3065H123.162ZM68.0058 73.9574V16.9619H69.2158C72.4115 16.9619 75.0116 14.371 75.0116 11.1866C75.0116 8.00227 72.4115 5.41134 69.2158 5.41134C66.0201 5.41134 63.4199 8.00227 63.4199 11.1866V73.9574H68.0058ZM124.847 5.41134H75.0329C76.5148 6.89292 77.4315 8.93448 77.4315 11.1866C77.4315 13.438 76.514 15.4804 75.0329 16.9619H124.847C128.043 16.9619 130.643 14.371 130.643 11.1866C130.643 8.00227 128.043 5.41134 124.847 5.41134ZM138.635 32.6846L131.728 25.8024L102.887 54.541L109.794 61.4232L138.635 32.6846ZM101.759 56.8266L99.3386 64.9594L107.5 62.5481L101.759 56.8266ZM142.466 27.1118C142.466 25.9812 142.024 24.9176 141.221 24.1176L140.326 23.2254C138.668 21.574 135.972 21.574 134.315 23.2254L133.439 24.0972L140.346 30.9794L141.221 30.1068C142.024 29.3068 142.466 28.2432 142.466 27.1118Z" fill="#666666"/>
</svg>
