<svg width="146" height="109" viewBox="0 0 146 109" fill="none" xmlns="http://www.w3.org/2000/svg">
<ellipse cx="73" cy="103" rx="73" ry="6" fill="#E1E1E1"/>
<path d="M115.504 30.2156L106.962 38.7406L105.243 37.0047L91.7508 23.5125L89.8945 21.6734L98.4367 13.1484L115.504 30.2156Z" fill="#CCCCCC"/>
<path d="M86.5094 63.164L87.5578 64.2125C88.2109 64.8656 88.5203 65.7078 88.5203 66.5672C88.5203 67.4093 88.1938 68.2687 87.5578 68.9218C86.2516 70.2109 84.1547 70.2109 82.8656 68.9218L80.3734 66.4297C81.0094 67.0656 81.3187 67.9078 81.3187 68.75C81.3187 69.6093 80.9922 70.4515 80.3391 71.1047C79.05 72.3937 76.9359 72.3937 75.6469 71.1047L72.45 67.8906C73.7391 69.1797 73.7391 71.2937 72.45 72.5828C71.7969 73.2359 70.9547 73.5625 70.0953 73.5625C69.3734 73.5625 68.6516 73.339 68.0672 72.875C68.6688 71.5343 68.4109 69.9015 67.3109 68.8015C65.8844 67.375 63.5641 67.375 62.1375 68.8015C63.5641 67.375 63.5641 65.0547 62.1375 63.6281C61.0203 62.5109 59.3875 62.2703 58.0297 62.889L57.875 62.7343L57.7547 62.614H57.4797C58.2016 61.239 57.9781 59.4859 56.8266 58.3343C55.7094 57.2172 54.0766 56.9765 52.7188 57.5953L51.1031 55.9797C48.1297 53.0062 46.1359 49.2078 45.3797 45.1172C45.1734 43.9828 44.6062 42.9343 43.7984 42.1265L40.3438 38.6203L56.4312 22.5328L60.9344 27.0359C62.5328 28.6343 64.9219 29.1156 67.0531 28.3421C67.9469 28.0156 68.875 27.8609 69.8031 27.8609C70.6281 27.8609 71.4531 27.9812 72.2609 28.239C71.5562 28.6687 70.9031 29.1843 70.3016 29.7859L61.0375 39.05C59.3875 40.7 59.3875 43.3812 61.0375 45.0312C61.8625 45.8562 62.9453 46.2687 64.0281 46.2687C65.1109 46.2687 66.1938 45.8562 67.0187 45.0312L72.3812 39.6687L74.5641 41.8515C74.5641 41.8515 74.5812 41.8687 74.6156 41.9031C74.6328 41.9203 74.65 41.9375 74.6672 41.9547C74.6844 41.9718 74.6844 41.9718 74.7016 41.989C74.7188 42.0062 74.7531 42.0406 74.7703 42.0578L90.7547 58.0422L91.1844 58.4718C91.8375 59.125 92.1641 59.9672 92.1641 60.8265C92.1641 61.6687 91.8375 62.5281 91.1844 63.1812C89.8953 64.4703 87.7984 64.4703 86.5094 63.164Z" fill="#CCCCCC"/>
<path d="M116.588 29.4078L99.5203 12.3406C98.9703 11.7906 98.0766 11.7906 97.5266 12.3406L88.9844 20.8828C88.7266 21.1406 88.5719 21.5015 88.5719 21.8797C88.5719 22.2578 88.7266 22.6015 88.9844 22.8765L89.8438 23.7359L87.8844 25.6953C86.6125 26.9672 84.6359 27.3109 82.9859 26.5547C81.4219 25.85 79.6859 25.4719 77.9672 25.4719C75.9219 25.4719 73.9281 25.9875 72.1578 26.95C71.4188 26.7609 70.6625 26.675 69.8891 26.675C68.7719 26.675 67.6891 26.864 66.6578 27.2422C64.9906 27.8437 63.2203 27.4656 62.0172 26.2625L58.5109 22.7562L58.9234 22.3437C59.1813 22.0859 59.3359 21.725 59.3359 21.3469C59.3359 20.9687 59.1813 20.625 58.9234 20.35L50.3813 11.8078C49.8313 11.2578 48.9375 11.2578 48.3875 11.8078L29.4125 30.8C28.8625 31.35 28.8625 32.2437 29.4125 32.7937L37.9375 41.3187C38.1953 41.5765 38.5563 41.7312 38.9344 41.7312C39.3125 41.7312 39.6563 41.5765 39.9313 41.3187L40.4469 40.8031L42.9219 43.2781C43.5406 43.8968 43.9531 44.6875 44.125 45.5297C44.95 49.9468 47.0641 53.9515 50.2438 57.1312L50.7078 57.5953C49.8141 58.5406 49.3156 59.7609 49.3156 61.0672C49.3156 62.425 49.8484 63.6968 50.7938 64.6422C51.7734 65.6218 53.0797 66.1203 54.3688 66.1203C54.4547 66.1203 54.5406 66.1203 54.6266 66.1203C54.5578 67.4953 55.0563 68.9047 56.1047 69.9531C57.0672 70.9156 58.3219 71.4312 59.6797 71.4312C59.7141 71.4312 59.7484 71.4312 59.8 71.4312C59.7656 72.7547 60.2641 74.1125 61.2781 75.1265C62.2406 76.089 63.4953 76.6047 64.8531 76.6047C66.2109 76.6047 67.4828 76.0718 68.4281 75.1265C68.5141 75.0406 68.5828 74.9547 68.6516 74.8859C69.15 75.0578 69.6828 75.1437 70.2156 75.1437C71.4875 75.1437 72.6734 74.6453 73.55 73.7515C74.0312 73.2703 74.375 72.7203 74.6156 72.1187L74.7531 72.2562C75.6813 73.1844 76.8844 73.6312 78.0875 73.6312C79.2906 73.6312 80.5109 73.1672 81.4219 72.2562C81.9031 71.775 82.2813 71.1906 82.5047 70.5547C83.3297 71.1562 84.3094 71.4484 85.2891 71.4484C86.4922 71.4484 87.7125 70.9844 88.6234 70.0734C89.5172 69.1797 89.9984 67.9937 89.9984 66.739C89.9984 66.3609 89.9469 65.9828 89.8609 65.6218C90.7547 65.4328 91.5797 65.0031 92.25 64.3328C93.1438 63.439 93.625 62.2531 93.625 60.9984C93.625 60.0015 93.3156 59.0562 92.7484 58.2656L93.8828 57.1312C97.0969 53.9172 99.2281 49.8609 100.019 45.375C100.156 44.6187 100.517 43.9312 101.084 43.364L105.278 39.1703L106.017 39.9094C106.292 40.1844 106.653 40.3219 107.014 40.3219C107.375 40.3219 107.736 40.1844 108.011 39.9094L116.553 31.3672C116.811 31.1094 116.966 30.7484 116.966 30.3703C117 30.0265 116.845 29.6656 116.588 29.4078ZM32.3859 31.7797L49.4016 14.764L55.95 21.3125L38.9344 38.3281L32.3859 31.7797ZM52.7703 62.6828C52.3406 62.2531 52.1172 61.6859 52.1172 61.1015C52.1172 60.5 52.3578 59.9328 52.7703 59.5203C53.2 59.0906 53.7844 58.8672 54.3516 58.8672C54.9188 58.8672 55.5031 59.0906 55.9328 59.5203C56.8094 60.3968 56.8094 61.8234 55.9328 62.7C55.0734 63.5593 53.6469 63.5594 52.7703 62.6828ZM59.6625 68.6469C59.0609 68.6469 58.4938 68.4062 58.0813 67.9937C57.2047 67.1172 57.2047 65.6906 58.0813 64.814C58.5109 64.3843 59.0953 64.1609 59.6625 64.1609C60.2297 64.1609 60.8141 64.3843 61.2438 64.814C62.1203 65.6906 62.1203 67.1172 61.2438 67.9937C60.8313 68.4062 60.2641 68.6469 59.6625 68.6469ZM66.4172 73.15C65.9875 73.5797 65.4203 73.8031 64.8359 73.8031C64.2344 73.8031 63.6672 73.5625 63.2547 73.15C62.3781 72.2734 62.3781 70.8468 63.2547 69.9703C63.6844 69.5406 64.2688 69.3172 64.8359 69.3172C65.4031 69.3172 65.9875 69.5406 66.4172 69.9703C67.2938 70.8468 67.2938 72.2734 66.4172 73.15ZM90.2906 62.3562C89.9297 62.7172 89.4484 62.9234 88.9328 62.9234C88.4172 62.9234 87.9359 62.7172 87.575 62.3562L73.9453 48.7265C73.3953 48.1765 72.5016 48.1765 71.9516 48.7265C71.4016 49.2765 71.4016 50.1703 71.9516 50.7203L86.6469 65.3984C87.0078 65.7593 87.2141 66.2406 87.2141 66.7562C87.2141 67.2719 87.0078 67.7531 86.6469 68.114C85.9078 68.8531 84.6875 68.8531 83.9313 68.114L81.4563 65.639C81.4391 65.6219 81.4219 65.6047 81.4219 65.6047C81.4219 65.6047 81.4047 65.6047 81.4047 65.5875L70.0094 54.1922C69.4594 53.6422 68.5656 53.6422 68.0156 54.1922C67.4656 54.7422 67.4656 55.6359 68.0156 56.1859L79.4453 67.6156C79.7891 67.9765 79.9953 68.4406 79.9953 68.9562C79.9953 69.4719 79.7891 69.9531 79.4281 70.314C78.6891 71.0531 77.4688 71.0531 76.7297 70.314L64.3375 57.9219C63.7875 57.3718 62.8938 57.3718 62.3438 57.9219C61.7938 58.4719 61.7938 59.3656 62.3438 59.9156L71.5219 69.0937C71.8828 69.4547 72.0891 69.9359 72.0891 70.4515C72.0891 70.9672 71.8828 71.4484 71.5219 71.8093C71.1609 72.1703 70.6797 72.3765 70.1641 72.3765C70.0438 72.3765 69.9234 72.3594 69.8031 72.3422C70.0266 70.8125 69.5625 69.1968 68.3766 68.0109C67.4141 67.0484 66.1594 66.5328 64.8016 66.5328C64.7672 66.5328 64.7328 66.5328 64.6813 66.5328C64.7156 65.2093 64.2172 63.8515 63.2031 62.8375C62.2406 61.875 60.9859 61.3593 59.6281 61.3593C59.5422 61.3593 59.4563 61.3593 59.3703 61.3593C59.4391 59.9844 58.9406 58.575 57.8922 57.5265C56.6203 56.2547 54.8156 55.8078 53.1828 56.1859L52.1688 55.1718C49.4531 52.3875 47.5969 48.8812 46.875 45.0312C46.6172 43.6218 45.9297 42.3328 44.8984 41.3015L42.4234 38.8265L56.5172 24.7328L60.0234 28.239C61.3813 29.5969 63.2203 30.3187 65.0938 30.3187C65.9359 30.3187 66.7953 30.1812 67.6031 29.8719C67.9984 29.7344 68.4109 29.6312 68.8234 29.5625L60.1266 38.2594C59.0609 39.325 58.4766 40.7343 58.4766 42.2468C58.4766 43.7593 59.0609 45.1687 60.1266 46.2343C61.2266 47.3344 62.6703 47.8843 64.1141 47.8843C65.5578 47.8843 67.0016 47.3344 68.1016 46.2343L72.4672 41.8687L73.6531 43.0547L73.7047 43.1062L73.7563 43.1578C73.7734 43.175 73.7906 43.1922 73.7906 43.1922L90.2734 59.675C90.6344 60.0359 90.8406 60.5172 90.8406 61.0328C90.8578 61.514 90.6516 61.9953 90.2906 62.3562ZM99.1422 41.3875C98.1625 42.3672 97.5266 43.5703 97.2859 44.8937C96.5813 48.7953 94.725 52.3531 91.9234 55.1547L90.8406 56.2375L81.9547 47.3515C82.1438 47.3687 82.35 47.3687 82.5391 47.3687C83.4328 47.3687 84.3609 47.214 85.2719 46.8359C85.9938 46.5437 86.3375 45.7187 86.0453 44.9968C85.7531 44.275 84.9281 43.9312 84.2063 44.2234C80.5969 45.7015 76.2484 41.6281 75.7672 41.1469L75.75 41.1297L75.6984 41.0781L75.6469 41.0265L74.4609 39.8406L75.8016 38.5C76.3516 37.95 76.3516 37.0562 75.8016 36.5062C75.2516 35.9562 74.3578 35.9562 73.8078 36.5062L71.4703 38.8437L66.1078 44.2062C65.0078 45.3062 63.2203 45.3062 62.1031 44.2062C61.5703 43.6734 61.2781 42.9687 61.2781 42.2125C61.2781 41.4562 61.5703 40.7515 62.1031 40.2187L71.3672 30.9547C71.8828 30.439 72.45 29.9922 73.0688 29.614C74.5297 28.7031 76.2141 28.239 77.95 28.239C79.2734 28.239 80.5969 28.5312 81.8 29.064C84.5156 30.3015 87.7641 29.7172 89.8609 27.6375L91.8203 25.6781L103.319 37.1765L99.1422 41.3875ZM107.066 36.9359L91.9922 21.8625L98.5406 15.314L113.614 30.3875L107.066 36.9359Z" fill="#666666"/>
<path d="M108.476 32.8797C109.254 32.8797 109.885 32.2487 109.885 31.4704C109.885 30.692 109.254 30.061 108.476 30.061C107.697 30.061 107.066 30.692 107.066 31.4704C107.066 32.2487 107.697 32.8797 108.476 32.8797Z" fill="#666666"/>
<path d="M38.2121 34.2719C38.9905 34.2719 39.6215 33.6409 39.6215 32.8625C39.6215 32.0841 38.9905 31.4531 38.2121 31.4531C37.4337 31.4531 36.8027 32.0841 36.8027 32.8625C36.8027 33.6409 37.4337 34.2719 38.2121 34.2719Z" fill="#666666"/>
</svg>
