<svg width="146" height="109" viewBox="0 0 146 109" fill="none" xmlns="http://www.w3.org/2000/svg">
<ellipse cx="73" cy="103" rx="73" ry="6" fill="#E1E1E1"/>
<path d="M33.6602 27.4968H47.9092C51.9658 27.4968 55.245 24.147 55.245 20.0029V16.9811H40.9959C36.9562 16.9811 33.6602 20.3309 33.6602 24.475V27.4968Z" fill="#CCCCCC"/>
<path d="M112.443 30.264C114.17 30.264 115.572 32.6144 115.572 35.5219C115.572 38.4294 114.17 40.7797 112.443 40.7797C110.716 40.7797 109.484 39.6481 109.484 36.7406C109.484 33.8331 110.716 30.264 112.443 30.264Z" fill="#CCCCCC"/>
<path d="M111.144 26.6183V33.0314C97.2931 31.8015 96.1128 24.2288 96.1128 24.2288V29.0606H91.7734V26.6183C91.7734 21.5933 95.8004 17.5346 100.747 17.5346H102.153C107.117 17.5346 111.144 21.5933 111.144 26.6183Z" fill="#CCCCCC"/>
<path d="M73.6155 13.1069H71.7456C65.745 13.1069 60.8662 17.9807 60.7812 24.0215C62.8041 26.304 65.847 28.2261 68.1248 28.8268C67.5299 27.6255 66.2889 24.7595 66.9349 22.048C68.9238 24.7423 78.1203 29.1871 84.5799 30.8175V24.1932C84.5799 18.0665 79.6672 13.1069 73.6155 13.1069Z" fill="#CCCCCC"/>
<path d="M77.7786 49.0816H75.1699C81.4757 49.0816 86.6068 54.7788 86.6068 61.8064V73.3883C86.6068 74.3265 85.9157 75.0941 85.0692 75.0941H88.9391C89.8893 75.0941 90.6667 74.3265 90.6667 73.3883V61.8064C90.6494 54.7617 84.8964 49.0816 77.7786 49.0816Z" fill="#CCCCCC"/>
<path d="M71.8489 67.8991L81.8112 50.1705C80.2584 49.4729 78.5486 49.0816 76.7166 49.0816H66.9812C65.1667 49.0816 63.4395 49.4729 61.8867 50.1705L71.8489 67.8991Z" fill="#EBEEF2"/>
<path d="M106.716 47.6229C106.077 47.4885 105.421 47.4212 104.73 47.4212H97.0798C96.4063 47.4212 95.7327 47.4885 95.0938 47.6229C95.56 51.0013 97.8051 53.825 100.896 55.1696C103.988 53.825 106.25 51.0013 106.716 47.6229Z" fill="#EBEEF2"/>
<path d="M106.995 46.0185C106.978 46.0185 106.978 46.0185 106.961 46.0013H106.943C106.789 45.967 106.634 45.9326 106.462 45.9154C106.445 45.9154 106.41 45.9154 106.393 45.8983C105.843 45.8124 105.276 45.7609 104.708 45.7609H97.0923C96.9032 45.7609 96.7141 45.7609 96.525 45.778C96.5078 45.778 96.5078 45.778 96.4906 45.778C93.8087 45.9154 91.3158 47.0318 89.4075 48.9382C88.8746 49.4878 88.8746 50.3637 89.4075 50.8961C89.9577 51.4285 90.8345 51.4285 91.3674 50.8961C92.1582 50.1061 93.0694 49.505 94.0666 49.1099C94.9777 52.2873 97.2643 54.9665 100.324 56.3233C100.496 56.4092 100.703 56.4436 100.892 56.4436C101.081 56.4436 101.27 56.4092 101.459 56.3233C104.519 54.9665 106.823 52.2873 107.717 49.1099C110.691 50.3122 112.789 53.2147 112.789 56.6153V65.1168H94.2557C93.482 65.1168 92.8631 65.7351 92.8631 66.508C92.8631 67.2808 93.482 67.8991 94.2557 67.8991H113.442C114.611 67.8991 115.574 66.9545 115.574 65.7695V56.6153C115.574 51.4285 111.895 47.0661 106.995 46.0185ZM100.909 53.541C98.9319 52.4934 97.4534 50.6728 96.8001 48.5604C96.9032 48.5604 96.9892 48.5604 97.0923 48.5604H104.708C104.812 48.5604 104.898 48.5604 105.001 48.5604C104.347 50.6728 102.869 52.4762 100.909 53.541Z" fill="#666666"/>
<path d="M101.03 44.1004C103.832 44.1004 106.395 43.0274 108.325 41.2622C109.025 41.5391 109.794 41.6949 110.563 41.6949C113.946 41.6949 116.679 38.9085 116.679 35.4992C116.679 32.5571 114.646 30.0996 111.93 29.4593V26.7768C111.93 25.1673 111.571 23.6444 110.922 22.2945C109.265 18.8332 105.762 16.4276 101.713 16.4276H100.33C94.6918 16.4276 90.1133 21.0657 90.1133 26.7768V29.1824V33.059C90.1133 39.1508 94.9994 44.1004 101.03 44.1004ZM113.929 35.4819C113.929 37.3683 112.425 38.8912 110.563 38.8912C110.478 38.8912 110.375 38.8912 110.29 38.8739C111.332 37.1952 111.93 35.2223 111.947 33.0936C111.947 33.0763 111.947 33.0763 111.947 33.059V32.3667C113.109 32.9205 113.929 34.0974 113.929 35.4819ZM100.33 19.2139H101.713C104.806 19.2139 107.454 21.1176 108.581 23.8347C108.957 24.7347 109.162 25.7384 109.162 26.7768V30.688V31.5187C98.3137 30.0823 97.152 24.4231 97.1178 24.1982C97.0324 23.5059 96.4515 23.004 95.7511 23.004C95.7169 23.004 95.6827 23.004 95.6656 23.004C94.9481 23.0559 94.3843 23.679 94.3843 24.4231V27.7979H92.8638V26.7768C92.8638 22.5887 96.2123 19.2139 100.33 19.2139ZM92.8638 30.5669H95.7681C96.4686 30.5669 97.0495 30.0304 97.1349 29.3381C99.2021 31.3976 102.807 33.5263 109.077 34.3224C108.479 38.2682 105.096 41.3141 101.013 41.3141C96.5199 41.3141 92.8638 37.6106 92.8638 33.059V30.5669Z" fill="#666666"/>
<path d="M43.9861 47.9745H41.5995L39.1953 58.0596L42.7928 61.811L46.3902 58.0596L43.9861 47.9745Z" fill="#CCCCCC"/>
<path d="M74.2468 53.8086C76.0842 53.0668 77.3821 51.2208 77.3821 49.0816H67.4199C67.4199 51.2381 68.7179 53.0668 70.5552 53.8086L68.9033 63.0556L72.3757 69.5595L75.8482 63.0556L74.2468 53.8086Z" fill="#CCCCCC"/>
<path d="M54.2313 52.3506C54.7797 51.8923 54.8482 51.0945 54.3855 50.5513C52.3976 48.2088 49.5014 46.8678 46.3996 46.8678H43.9147H41.584H39.082C33.341 46.8678 28.6797 51.4849 28.6797 57.1713V65.9132C28.6797 66.9995 29.5708 67.8992 30.6847 67.8992H49.5014C50.204 67.8992 50.7867 67.322 50.7867 66.6261C50.7867 65.9301 50.204 65.353 49.5014 65.353H31.2503V57.1883C31.2503 52.9107 34.7634 49.431 39.082 49.431H39.956L37.9852 57.6636C37.8824 58.0879 38.0023 58.5293 38.3108 58.8348L41.8239 62.5013C42.0638 62.7559 42.4066 62.8917 42.7493 62.8917C43.0921 62.8917 43.4348 62.7559 43.6747 62.5013L47.1879 58.8178C47.4792 58.5123 47.5992 58.071 47.5135 57.6466L45.5427 49.414H46.4167C48.7474 49.414 50.9238 50.4325 52.4319 52.1978C52.8774 52.741 53.7 52.8089 54.2313 52.3506ZM44.8572 57.5787L42.7493 59.7684L40.6586 57.5787L42.6122 49.431H42.9036L44.8572 57.5787Z" fill="#666666"/>
<path d="M32.0194 34.1439C32.0194 39.9295 36.8123 44.6539 42.7206 44.6539C48.6115 44.6539 53.4218 39.9467 53.4218 34.1439V28.1358C53.4218 27.9646 53.4218 27.8106 53.4043 27.6394C55.5306 26.0475 56.9075 23.5313 56.9075 20.7069V17.7114C56.9075 17.0096 56.3149 16.4276 55.6003 16.4276H40.8906C40.298 16.4276 39.7054 16.479 39.1303 16.5988C38.4157 16.7357 37.9626 17.4204 38.102 18.1051C38.2414 18.8069 38.9386 19.252 39.6357 19.115C40.0366 19.0294 40.4549 18.9952 40.8731 18.9952H54.2758V20.7069C54.2758 24.0961 51.4698 26.852 48.0189 26.852H34.6337V25.1403C34.6337 23.7195 35.1391 22.3159 36.0628 21.2204C36.516 20.6727 36.4463 19.8682 35.8885 19.406C35.3308 18.961 34.5117 19.0294 34.0411 19.5772C32.734 21.1348 32.002 23.1033 32.002 25.1232V28.1187C32.002 28.1187 32.002 28.1187 32.002 28.1358V34.1439H32.0194ZM50.8075 28.9916V34.1439C50.8075 38.5259 47.1823 42.0863 42.7206 42.0863C38.2588 42.0863 34.6337 38.5259 34.6337 34.1439V29.4196H48.0189C48.9949 29.4196 49.936 29.2655 50.8075 28.9916Z" fill="#666666"/>
<path d="M83.7122 49.2983C83.6951 49.2812 83.6781 49.2812 83.661 49.264C83.5247 49.1952 83.3884 49.1436 83.2521 49.0748C83.235 49.0748 83.218 49.0577 83.2009 49.0577C82.3659 48.6966 81.4969 48.4387 80.6107 48.2496C80.3892 48.198 80.1506 48.1637 79.9291 48.1293C79.7076 48.0949 79.469 48.0605 79.2475 48.0433H79.2304C78.9919 48.0261 78.7703 48.0089 78.5318 47.9917H78.5147C78.2761 47.9745 78.0376 47.9745 77.799 47.9745H77.7308H67.6597H67.5575C67.3189 47.9745 67.0803 47.9745 66.8417 47.9917H66.8247C66.5861 48.0089 66.3646 48.0261 66.126 48.0433H66.109C65.8704 48.0605 65.6489 48.0949 65.4103 48.1293C64.2856 48.3012 63.195 48.6107 62.1385 49.0577C62.1214 49.0577 62.1044 49.0748 62.0874 49.0748C61.951 49.1264 61.8147 49.1952 61.6784 49.264C61.6613 49.2812 61.6443 49.2812 61.6273 49.2983C56.8729 51.5505 53.584 56.4331 53.584 62.0722V73.7457C53.584 75.3961 54.9302 76.7543 56.5661 76.7543H88.7903C90.4263 76.7543 91.7725 75.3961 91.7725 73.7457V62.0722C91.7554 56.4331 88.4666 51.5505 83.7122 49.2983ZM76.7936 59.373L75.9415 54.6795C77.4241 53.7683 78.4636 52.2898 78.8215 50.5878C78.8385 50.5878 78.8555 50.5878 78.8555 50.5878C78.8896 50.5878 78.9237 50.5878 78.9748 50.605C79.3497 50.6393 79.7076 50.7081 80.0654 50.7769C80.0654 50.7769 80.0654 50.7769 80.0825 50.7769C80.2529 50.8113 80.4233 50.8456 80.5937 50.8972C80.6278 50.8972 80.6448 50.9144 80.6789 50.9144C80.8323 50.9488 80.9686 51.0004 81.122 51.0348C81.156 51.052 81.1731 51.052 81.2072 51.0691C81.2412 51.0863 81.2753 51.0863 81.2924 51.1035L76.7936 59.373ZM64.0471 51.1035C64.0811 51.0863 64.1152 51.0863 64.1323 51.0691C64.1663 51.052 64.1834 51.052 64.2175 51.0348C64.3538 50.9832 64.5072 50.9488 64.6605 50.9144C64.6946 50.9144 64.7116 50.8972 64.7457 50.8972C64.9161 50.8628 65.0865 50.8113 65.257 50.7769C65.257 50.7769 65.257 50.7769 65.274 50.7769C65.6319 50.7081 65.9897 50.6393 66.3646 50.605C66.3987 50.605 66.4328 50.605 66.4839 50.5878C66.5009 50.5878 66.5009 50.5878 66.518 50.5878C66.8758 52.2898 67.9153 53.7683 69.3979 54.6795L68.5458 59.373L64.0471 51.1035ZM73.2661 54.1981L74.8509 62.9661L72.6697 66.9891L70.4885 62.9833L72.0733 54.2153C72.1755 53.6136 71.8518 53.0119 71.2894 52.7884C70.267 52.3758 69.5001 51.5505 69.1423 50.5534H76.2142C75.8563 51.5505 75.0895 52.3758 74.0671 52.7884C73.4877 53.0119 73.1639 53.5964 73.2661 54.1981ZM89.1993 73.7457C89.1993 73.9863 89.0119 74.1755 88.7733 74.1755H56.5661C56.3276 74.1755 56.1401 73.9863 56.1401 73.7457V62.0722C56.1401 57.8773 58.3725 54.1809 61.7125 52.1694L71.545 70.29C71.7665 70.7026 72.1926 70.9605 72.6697 70.9605C73.1298 70.9605 73.5729 70.7026 73.7944 70.29L83.627 52.1694C86.967 54.1809 89.1993 57.8601 89.1993 62.0722V73.7457Z" fill="#666666"/>
<path d="M72.3936 45.2074C75.4938 45.2074 78.5083 44.1164 80.8892 42.1389C81.4373 41.6787 81.5058 40.8775 81.0604 40.332C80.6151 39.7865 79.7929 39.7183 79.2448 40.1615C77.3265 41.7469 74.8943 42.6333 72.3936 42.6333C66.4843 42.6333 61.6884 37.8431 61.6884 31.979V27.0524C63.5383 28.5185 65.6622 29.6606 67.4949 30.1209C67.9745 30.2402 68.5054 30.0697 68.8138 29.6947C69.1392 29.3026 69.1906 28.7742 68.9679 28.3139C68.574 27.5297 68.043 26.2853 67.8203 24.9386C69.5845 26.2001 71.7941 27.3422 73.25 28.0582C76.4872 29.6265 80.1013 31.0073 83.1158 31.8426V31.9619C83.1158 33.5303 82.7733 35.0474 82.1224 36.4453C81.8312 37.0931 82.1053 37.8431 82.739 38.15C83.3899 38.4398 84.1435 38.167 84.4518 37.5363C85.274 35.7804 85.6851 33.9053 85.6851 31.9619V30.8539V24.2738C85.6851 17.5062 80.1526 12 73.3527 12H71.4686C71.2631 12 71.0576 12 70.852 12.017C70.8006 12.017 70.7664 12.017 70.715 12.0341C70.5437 12.0511 70.3896 12.0511 70.2183 12.0682C70.184 12.0682 70.1498 12.0682 70.1155 12.0852C69.9442 12.1023 69.7558 12.1193 69.5845 12.1534C69.5674 12.1534 69.5674 12.1534 69.5503 12.1534C67.0153 12.5455 64.6516 13.7047 62.7846 15.5458C61.3116 16.9777 60.2496 18.7335 59.6673 20.6428C59.6673 20.6598 59.6673 20.6598 59.6502 20.6769C59.5988 20.8474 59.5474 21.0178 59.496 21.1883C59.4789 21.2906 59.4446 21.3758 59.4275 21.4781C59.4104 21.5633 59.3761 21.6656 59.359 21.7508C59.3247 21.9043 59.3076 22.0406 59.2733 22.1941C59.2733 22.2452 59.2562 22.2793 59.2562 22.3304C59.2219 22.5009 59.2048 22.6884 59.1877 22.8589C59.1877 22.8759 59.1877 22.893 59.1877 22.91C59.1706 23.0975 59.1534 23.2851 59.1363 23.4726C59.1363 23.4896 59.1363 23.4896 59.1363 23.5067C59.1192 23.6942 59.1192 23.8817 59.1192 24.0692C59.1192 24.0863 59.1192 24.0863 59.1192 24.1033C59.1192 24.1715 59.1192 24.2226 59.1192 24.2908V31.996C59.102 39.2751 65.0627 45.2074 72.3936 45.2074ZM73.3356 14.5911C78.731 14.5911 83.0987 18.9551 83.0987 24.3079V29.2174C76.9154 27.3934 69.242 23.5749 67.6319 21.4099C67.3921 21.086 66.9982 20.8985 66.6042 20.8985C66.5186 20.8985 66.4329 20.8985 66.3473 20.9326C65.8506 21.0349 65.4737 21.4099 65.3539 21.8872C65.1312 22.7907 64.9599 24.4102 65.5251 26.5751C64.1549 25.808 62.7846 24.7681 61.6884 23.6601C61.9967 19.0915 65.5251 15.3582 70.0127 14.6934H70.0299C70.1669 14.6764 70.321 14.6593 70.4581 14.6423C70.5094 14.6423 70.578 14.6423 70.6293 14.6252C70.7321 14.6252 70.8349 14.6082 70.9377 14.6082C71.0918 14.6082 71.2631 14.5911 71.4172 14.5911H73.3356Z" fill="#666666"/>
</svg>
