<svg width="148" height="115" viewBox="0 0 148 115" fill="none" xmlns="http://www.w3.org/2000/svg">
<ellipse cx="74.0679" cy="109.758" rx="73.1655" ry="4.26207" fill="#E1E1E1"/>
<g clip-path="url(#clip0)">
<path d="M108.187 31.9825L88.0171 11.8127C85.5995 9.39511 81.6667 9.39511 79.2495 11.8127L43.813 47.2488C41.3957 49.6664 41.3957 53.5992 43.813 56.0165L63.9827 76.1866C66.4004 78.6039 70.3333 78.604 72.7505 76.1866L108.187 40.7504C110.604 38.3327 110.604 34.3998 108.187 31.9825ZM67.7005 73.739C67.4115 73.64 67.136 73.4946 66.9051 73.2639L46.7354 53.0943C46.7299 53.0885 46.7287 53.0814 46.7228 53.0757L67.7003 53.0755V73.739H67.7005ZM47.9651 48.9422L80.9432 15.964L80.9435 48.0409C80.9432 48.5231 80.5237 48.9429 80.0413 48.9429L47.9651 48.9422ZM71.8331 71.2589V53.0757H80.0416C81.3871 53.0757 82.6516 52.5518 83.6019 51.6015C84.5524 50.651 85.0759 49.3868 85.0761 48.041V39.8327L103.258 39.8334L71.8331 71.2589ZM85.0759 35.6999V14.7224C85.0815 14.7281 85.089 14.7294 85.0947 14.7351L105.264 34.9049C105.495 35.1355 105.64 35.4108 105.739 35.7006L85.0759 35.6999Z" fill="#666666"/>
<path d="M44.0137 18.7612H65.1785C66.2905 18.7612 67.1922 17.8597 67.1922 16.7477C67.1922 15.6356 66.2906 14.734 65.1785 14.734H44.0137C42.9015 14.734 42 15.6355 42 16.7477C42 17.8597 42.9015 18.7612 44.0137 18.7612Z" fill="#666666"/>
<path d="M44.0137 26.6717H57.2855C58.3976 26.6717 59.299 25.7703 59.299 24.6581C59.299 23.5462 58.3976 22.6446 57.2855 22.6446H44.0137C42.9015 22.6446 42 23.546 42 24.6581C42 25.7703 42.9015 26.6717 44.0137 26.6717Z" fill="#666666"/>
<path d="M44.0137 34.3427H52.5826C53.6945 34.3427 54.5962 33.4412 54.5962 32.329C54.5962 31.2168 53.6946 30.3154 52.5826 30.3154H44.0137C42.9015 30.3154 42 31.217 42 32.329C42 33.4411 42.9015 34.3427 44.0137 34.3427Z" fill="#666666"/>
<path d="M52.5826 71.3686H44.0137C42.9015 71.3686 42 72.2702 42 73.3822C42 74.4943 42.9015 75.3959 44.0137 75.3959H52.5826C53.6945 75.3959 54.5962 74.4944 54.5962 73.3822C54.5962 72.2702 53.6946 71.3686 52.5826 71.3686Z" fill="#666666"/>
</g>
<defs>
<clipPath id="clip0">
<rect width="68" height="68" fill="white" transform="translate(42 10)"/>
</clipPath>
</defs>
</svg>
