<svg width="148" height="115" viewBox="0 0 148 115" fill="none" xmlns="http://www.w3.org/2000/svg">
<ellipse cx="74.0679" cy="109.758" rx="73.1655" ry="4.26207" fill="#E1E1E1"/>
<g clip-path="url(#clip0)">
<path d="M64.0955 37.4685H35.5644C33.571 37.4685 31.9551 35.8526 31.9551 33.8592V5.3281C31.9551 3.33471 33.571 1.71875 35.5644 1.71875H64.0955C66.0889 1.71875 67.7049 3.33471 67.7049 5.3281V33.8592C67.7049 35.8526 66.0889 37.4685 64.0955 37.4685Z" fill="#CCCCCC"/>
<path d="M108.096 37.4685H79.5644C77.571 37.4685 75.9551 35.8526 75.9551 33.8592V5.3281C75.9551 3.33471 77.571 1.71875 79.5644 1.71875H108.096C110.089 1.71875 111.705 3.33471 111.705 5.3281V33.8592C111.705 35.8526 110.089 37.4685 108.096 37.4685Z" fill="white"/>
<path d="M112.422 48.3724C110.946 48.3724 109.652 49.1546 108.931 50.3269L108.328 50.0951V49.4497C108.328 47.1883 106.495 45.3551 104.233 45.3551C102.066 45.3551 100.294 47.039 100.149 49.1695L100.128 49.1702C99.9846 47.0393 98.2116 45.3551 96.0444 45.3551C93.7831 45.3551 91.9499 47.1883 91.9499 49.4497V32.0775C91.9499 29.8162 90.1167 27.983 87.8553 27.983C85.594 27.983 83.7608 29.8162 83.7608 32.0775V58.7582L83.7554 58.7642L83.7546 54.3046L77.5387 63.4165C75.8846 65.8411 75.6347 68.9593 76.8813 71.6166L83.7609 86.2807H112.31L114.712 78.621C115.908 74.8068 116.517 70.8329 116.517 66.8354V52.4669C116.517 50.2056 114.684 48.3724 112.422 48.3724Z" fill="#EBEBEB"/>
<path d="M112.421 46.6537C111.419 46.6537 110.476 46.908 109.653 47.3558C108.811 45.1822 106.699 43.6364 104.232 43.6364C102.636 43.6364 101.189 44.283 100.137 45.3275C99.0856 44.283 97.6385 43.6364 96.0428 43.6364C95.1966 43.6364 94.393 43.8196 93.6671 44.146V39.179C93.7201 39.184 93.7737 39.1871 93.828 39.1871H108.094C111.032 39.1871 113.422 36.797 113.422 33.859V26.4683C113.422 25.5192 112.652 24.7495 111.703 24.7495C110.754 24.7495 109.984 25.5192 109.984 26.4683V33.8592C109.984 34.9016 109.136 35.7498 108.094 35.7498H93.828C93.7737 35.7498 93.7202 35.7531 93.6671 35.7579V32.0774C93.6671 28.8721 91.0593 26.2642 87.8538 26.2642C84.6486 26.2642 82.0407 28.8721 82.0407 32.0774V35.7498H79.5625C78.5201 35.7498 77.6719 34.9016 77.6719 33.8592V5.32809C77.6719 4.28568 78.5201 3.43748 79.5625 3.43748H108.094C109.136 3.43748 109.984 4.28568 109.984 5.32809V12.7187C109.984 13.6678 110.754 14.4374 111.703 14.4374C112.652 14.4374 113.422 13.6678 113.422 12.7187V5.32809C113.422 2.39008 111.032 0 108.094 0H79.5625C76.6245 0 74.2344 2.39008 74.2344 5.32809V33.8592C74.2344 36.7972 76.6245 39.1873 79.5625 39.1873H82.0407V53.7653L76.1176 62.4482C74.1302 65.3613 73.8263 69.1544 75.3239 72.3467L82.2033 87.0107C82.4958 87.6341 83.1148 87.9998 83.7607 87.9998C84.0051 87.9998 84.2534 87.9474 84.4894 87.8369C85.3488 87.4337 85.7185 86.4102 85.3156 85.5508L78.4362 70.8869C77.4524 68.79 77.6521 66.2987 78.9573 64.3854L82.0407 59.8653V63.1147C82.0407 64.0638 82.8104 64.8335 83.7595 64.8335C84.7085 64.8335 85.4782 64.0638 85.4782 63.1147V32.0775C85.4782 30.7675 86.5438 29.7019 87.8538 29.7019C89.1639 29.7019 90.2297 30.7675 90.2297 32.0775V57.4645C90.2297 58.4136 90.9993 59.1833 91.9484 59.1833C92.8975 59.1833 93.6671 58.4136 93.6671 57.4645V49.4497C93.6671 48.1397 94.7328 47.0741 96.0428 47.0741C97.3528 47.0741 98.4184 48.1397 98.4184 49.4497V57.4645C98.4184 58.4136 99.1881 59.1833 100.137 59.1833C101.086 59.1833 101.856 58.4136 101.856 57.4645V49.4497C101.856 48.1397 102.922 47.0741 104.232 47.0741C105.542 47.0741 106.607 48.1397 106.607 49.4497V57.4645C106.607 58.4136 107.377 59.1833 108.326 59.1833C109.275 59.1833 110.045 58.4136 110.045 57.4645V52.4669C110.045 51.1569 111.111 50.0913 112.421 50.0913C113.731 50.0913 114.796 51.1569 114.796 52.4669V66.8356C114.796 70.6631 114.216 74.4551 113.071 78.1068L110.668 85.7665C110.384 86.6723 110.888 87.6368 111.794 87.9208C111.965 87.9746 112.139 88 112.309 88C113.04 87.9998 113.718 87.5296 113.948 86.795L116.351 79.1353C117.6 75.1502 118.234 71.012 118.234 66.8354V52.4668C118.234 49.2615 115.626 46.6537 112.421 46.6537Z" fill="#666666"/>
<path d="M64.0955 0H35.5644C32.6264 0 30.2363 2.39008 30.2363 5.32809V33.8592C30.2363 36.7972 32.6264 39.1873 35.5644 39.1873H42.955C43.9041 39.1873 44.6737 38.4176 44.6737 37.4685C44.6737 36.5194 43.9041 35.7498 42.955 35.7498H35.5644C34.522 35.7498 33.6738 34.9016 33.6738 33.8592V5.32809C33.6738 4.28568 34.522 3.43748 35.5644 3.43748H64.0955C65.1379 3.43748 65.9861 4.28568 65.9861 5.32809V33.8592C65.9861 34.9016 65.1379 35.7498 64.0955 35.7498H56.7049C55.7558 35.7498 54.9862 36.5194 54.9862 37.4685C54.9862 38.4176 55.7558 39.1873 56.7049 39.1873H64.0955C67.0335 39.1873 69.4236 36.7972 69.4236 33.8592V5.32809C69.4236 2.39008 67.0335 0 64.0955 0Z" fill="#666666"/>
<path d="M57.0809 26.8452C57.7521 26.174 57.7521 25.0857 57.0809 24.4143L52.26 19.5938L57.0809 14.773C57.7521 14.1018 57.7521 13.0135 57.0809 12.3422C56.4098 11.6714 55.3218 11.671 54.6501 12.3422L49.8292 17.1629L45.0084 12.3422C44.3371 11.6712 43.2491 11.6712 42.5776 12.3422C41.9064 13.0134 41.9064 14.1017 42.5776 14.773L47.3985 19.5938L42.5776 24.4145C41.9064 25.0857 41.9064 26.174 42.5776 26.8453C42.9133 27.1808 43.3531 27.3488 43.7929 27.3488C44.2328 27.3488 44.6726 27.1808 45.0083 26.8453L49.8292 22.0246L54.6501 26.8453C54.9858 27.1808 55.4256 27.3488 55.8654 27.3488C56.3053 27.3488 56.7453 27.1808 57.0809 26.8452Z" fill="#666666"/>
<path d="M101.466 11.2146L92.9013 19.7797L89.3053 16.1837C88.634 15.5127 87.546 15.5127 86.8745 16.1837C86.2033 16.8549 86.2033 17.9432 86.8745 18.6145L91.6858 23.4258C92.0214 23.7613 92.4613 23.9292 92.9011 23.9292C93.3409 23.9292 93.7808 23.7613 94.1164 23.4258L103.897 13.6454C104.568 12.9743 104.568 11.886 103.897 11.2146C103.226 10.5436 102.138 10.5436 101.466 11.2146Z" fill="#666666"/>
<path d="M49.8301 35.7491C49.378 35.7491 48.9346 35.933 48.6149 36.2529C48.2952 36.5724 48.1113 37.0158 48.1113 37.4678C48.1113 37.9199 48.2951 38.3633 48.6149 38.683C48.9346 39.0044 49.378 39.1866 49.8301 39.1866C50.2821 39.1866 50.7255 39.0044 51.0451 38.683C51.3648 38.3633 51.5488 37.9199 51.5488 37.4678C51.5488 37.0158 51.3649 36.5724 51.0451 36.2529C50.7255 35.933 50.2821 35.7491 49.8301 35.7491Z" fill="#666666"/>
<path d="M111.703 17.8742C111.251 17.8742 110.808 18.0581 110.488 18.378C110.168 18.6975 109.984 19.1409 109.984 19.593C109.984 20.0469 110.168 20.4884 110.488 20.8081C110.808 21.1295 111.251 21.3117 111.703 21.3117C112.155 21.3117 112.599 21.1295 112.918 20.8081C113.238 20.4884 113.422 20.045 113.422 19.593C113.422 19.1409 113.238 18.6975 112.918 18.378C112.599 18.0581 112.155 17.8742 111.703 17.8742Z" fill="#666666"/>
</g>
<defs>
<clipPath id="clip0">
<rect width="88" height="88" fill="white" transform="translate(30.2344)"/>
</clipPath>
</defs>
</svg>
