<svg width="79" height="79" viewBox="0 0 79 79" fill="none" xmlns="http://www.w3.org/2000/svg">
<path d="M36.9097 25.8366L19.0048 19.0605C18.2916 18.7906 17.491 19.1096 17.1597 19.7952L10.4741 33.6111C7.28856 40.1939 10.4343 48.0912 17.2748 50.6786C24.1137 53.2676 31.6996 49.4317 33.6705 42.3887L37.8054 27.6081C38.011 26.8749 37.6229 26.1065 36.9097 25.8366Z" fill="#F1F1F1"/>
<path d="M36.91 25.8379L29.8701 23.1738L24.9529 40.7475C23.5403 45.7981 18.8501 48.9791 13.9023 48.7613C14.8915 49.5511 16.0204 50.2061 17.275 50.68C24.1139 53.2689 31.6998 49.433 33.6707 42.3901L37.8057 27.6094C38.0112 26.8763 37.6231 26.1079 36.91 25.8379Z" fill="#DFDFDE"/>
<path d="M36.1019 33.7051L9.57119 36.1269C8.13101 42.0839 11.289 48.4167 17.2737 50.6821C24.1141 53.2695 31.7 49.4336 33.6709 42.3922L36.1019 33.7051Z" fill="#CF394E"/>
<path d="M36.1041 33.7051L26.6854 34.564L24.9553 40.748C23.5428 45.7986 18.8526 48.9781 13.9062 48.7618C13.9262 48.7787 13.9461 48.794 13.9661 48.8094C14.2866 49.0625 14.621 49.3002 14.9691 49.5226C15.0121 49.5486 15.052 49.5763 15.0949 49.6023C15.1808 49.656 15.2682 49.7066 15.3556 49.7588C15.4247 49.7986 15.4937 49.8401 15.5642 49.8799C15.6424 49.9244 15.7222 49.9674 15.802 50.0088C15.8863 50.0548 15.9707 50.0993 16.0566 50.1422C16.1286 50.179 16.2007 50.2143 16.2743 50.2496C16.3771 50.2987 16.4829 50.3477 16.5872 50.3937C16.647 50.4213 16.7053 50.449 16.7667 50.4735C16.9339 50.5456 17.1041 50.6161 17.2759 50.6806C17.552 50.7848 17.8296 50.8753 18.1072 50.9597C18.4247 51.0548 18.7437 51.1376 19.0642 51.2082C19.3572 51.271 19.6501 51.3247 19.9431 51.3661C20.3342 51.4229 20.7253 51.4597 21.1164 51.4781C21.1348 51.4781 21.1532 51.4796 21.1716 51.4812C25.4768 51.6591 29.6087 49.5701 32.0136 45.9934C32.1348 45.814 32.2514 45.6315 32.3618 45.4444C32.5857 45.0732 32.7912 44.6851 32.9753 44.2848C33.2544 43.6836 33.4876 43.0517 33.6731 42.3907L36.1041 33.7051Z" fill="#AF1B2F"/>
<path d="M41.6187 25.8366L59.5251 19.0605C60.2368 18.7906 61.0374 19.1096 61.3687 19.7952L68.0543 33.6111C71.2414 40.1939 68.0941 48.0912 61.2552 50.6786C54.4147 53.2676 46.8288 49.4317 44.8579 42.3887L40.723 27.6081C40.5174 26.8749 40.9055 26.1065 41.6187 25.8366Z" fill="#F1F1F1"/>
<path d="M68.0562 33.6111L61.3706 19.7952C61.0393 19.1096 60.2387 18.7906 59.527 19.0605L52.6758 21.6541L59.4979 35.7507C62.2295 41.3933 60.3031 47.9992 55.3905 51.4025C57.3077 51.6311 59.3123 51.4148 61.2571 50.6801C68.096 48.0912 71.2433 40.1939 68.0562 33.6111Z" fill="#DFDFDE"/>
<path d="M42.4258 33.7051L68.9565 36.1269C70.3967 42.0839 67.2387 48.4167 61.254 50.6821C54.4135 53.2695 46.8276 49.4336 44.8568 42.3922L42.4258 33.7051Z" fill="#FFDB43"/>
<path d="M62.0394 50.3507C62.1698 50.2909 62.3001 50.231 62.4259 50.1682C62.4995 50.1313 62.5701 50.093 62.6422 50.0562C62.7572 49.9948 62.8707 49.935 62.9842 49.8706C63.0578 49.8292 63.1299 49.7878 63.202 49.7448C63.3109 49.6804 63.4167 49.6145 63.5225 49.5485C63.5931 49.504 63.6636 49.458 63.7342 49.412C63.84 49.3415 63.9443 49.2694 64.0471 49.1973C64.113 49.1513 64.1774 49.1053 64.2419 49.0593C64.3523 48.978 64.4596 48.8936 64.567 48.8093C64.6192 48.7663 64.6744 48.7264 64.725 48.685C64.8814 48.5577 65.0333 48.4289 65.1805 48.2955C65.182 48.2939 65.1851 48.2909 65.1866 48.2893C65.3369 48.1544 65.4827 48.0148 65.6253 47.8737C65.6728 47.8261 65.7173 47.7786 65.7633 47.731C65.8584 47.6344 65.952 47.5363 66.0425 47.4366C66.0946 47.3798 66.1452 47.3215 66.1974 47.2617C66.2787 47.1697 66.3584 47.0761 66.4366 46.9826C66.4888 46.9197 66.5394 46.8553 66.59 46.7924C66.6652 46.6988 66.7388 46.6022 66.8093 46.5071C66.8584 46.4427 66.9075 46.3767 66.955 46.3108C67.0256 46.2111 67.0946 46.1114 67.1621 46.0102C67.2066 45.9458 67.2495 45.8813 67.2925 45.8169C67.3646 45.705 67.432 45.593 67.5011 45.4795C67.5363 45.4228 67.5716 45.366 67.6054 45.3093C67.6989 45.1467 67.7909 44.981 67.8784 44.8139C67.883 44.8047 67.8891 44.7955 67.8937 44.7847C67.9842 44.6114 68.0701 44.435 68.1514 44.2571C68.179 44.1973 68.205 44.1359 68.2327 44.0746C68.2848 43.955 68.3385 43.8338 68.3876 43.7111C68.4167 43.639 68.4443 43.5654 68.4719 43.4933C68.5149 43.3813 68.5578 43.2678 68.5977 43.1544C68.6238 43.0777 68.6498 42.9994 68.6759 42.9212C68.7127 42.8093 68.748 42.6973 68.7817 42.5838C68.8047 42.5056 68.8277 42.4274 68.8492 42.3476C68.8814 42.2326 68.9121 42.116 68.9397 41.9994C68.9596 41.9228 68.9781 41.8461 68.9965 41.7694C69.0241 41.6421 69.0501 41.5163 69.0747 41.3875C69.087 41.32 69.1023 41.2525 69.1146 41.185C69.1468 41.004 69.1744 40.8231 69.1974 40.6421C69.2004 40.6237 69.2035 40.6053 69.205 40.5869C69.2296 40.3936 69.2495 40.1988 69.2649 40.0056C69.271 39.9366 69.2725 39.8675 69.2771 39.8001C69.2848 39.6682 69.2925 39.5378 69.2971 39.4059C69.3001 39.3261 69.3001 39.2464 69.3001 39.1651C69.3017 39.0455 69.3032 38.9243 69.3001 38.8031C69.2986 38.7188 69.2955 38.6344 69.2925 38.5501C69.2879 38.432 69.2817 38.3123 69.2741 38.1942C69.2679 38.1099 69.2618 38.0255 69.2541 37.9412C69.2434 37.82 69.2311 37.6988 69.2158 37.5777C69.2066 37.4964 69.1974 37.4151 69.1866 37.3338C69.1682 37.2034 69.1468 37.0731 69.1238 36.9427C69.1115 36.8721 69.1008 36.8001 69.0885 36.7295C69.0532 36.547 69.0149 36.3645 68.9704 36.182C68.9673 36.1635 68.9643 36.1451 68.9596 36.1267L59.2495 35.2402L59.498 35.7525C62.2296 41.3951 60.3032 48.001 55.3906 51.4044C55.4535 51.412 55.5179 51.4182 55.5823 51.4243C55.7066 51.4366 55.8323 51.4473 55.9566 51.4565C56.0333 51.4626 56.1084 51.4672 56.1851 51.4718C56.3262 51.4795 56.4688 51.4841 56.6115 51.4872C56.6744 51.4887 56.7372 51.4902 56.8017 51.4902C56.9627 51.4902 57.1253 51.4887 57.2863 51.4826C57.3461 51.4795 57.406 51.478 57.4658 51.4749C57.6345 51.4657 57.8032 51.455 57.9719 51.4396C58.0195 51.435 58.0655 51.4304 58.113 51.4258C58.2771 51.4074 58.4428 51.389 58.6084 51.3645C58.6391 51.3599 58.6682 51.3568 58.6989 51.3522C58.8799 51.3246 59.0624 51.2924 59.2449 51.2556C59.2833 51.2479 59.3216 51.2402 59.36 51.2326C59.544 51.1942 59.7265 51.1528 59.909 51.1053C59.9474 51.0961 59.9857 51.0853 60.0256 51.0761C60.2112 51.0255 60.3968 50.9734 60.5823 50.9136C60.6115 50.9059 60.6391 50.8952 60.6682 50.886C60.8646 50.8231 61.0609 50.7556 61.2572 50.682C61.4581 50.6053 61.656 50.524 61.8507 50.4381C61.9152 50.4105 61.9765 50.3798 62.0394 50.3507Z" fill="#F9CE16"/>
<path d="M9.84924 66.7812L1.40138 68.9714C1.08696 69.0527 1.06396 69.4914 1.36764 69.6064L16.6667 75.3963C16.9719 75.5113 17.2434 75.1678 17.0624 74.8978L12.1805 67.6632L9.84924 66.7812ZM77.1284 68.9714L68.6806 66.7812L66.3493 67.6632L61.4674 74.8978C61.2864 75.1678 61.5579 75.5113 61.8631 75.3963L77.1622 69.6064C77.4658 69.4914 77.4428 69.0527 77.1284 68.9714Z" fill="#F1F1F1"/>
<path fill-rule="evenodd" clip-rule="evenodd" d="M12.3979 13.7031C12.3979 14.3212 11.8979 14.8212 11.2798 14.8212H10.0498V16.0513C10.0498 16.6694 9.54825 17.1694 8.93169 17.1694C8.31359 17.1694 7.81359 16.6694 7.81359 16.0513V14.8212H6.58353C5.96543 14.8212 5.46543 14.3212 5.46543 13.7031C5.46543 13.085 5.96543 12.585 6.58353 12.585H7.81359V11.355C7.81359 10.7369 8.31359 10.2369 8.93169 10.2369C9.54825 10.2369 10.0498 10.7369 10.0498 11.355V12.585H11.2798C11.8964 12.585 12.3979 13.085 12.3979 13.7031ZM73.0651 13.7031C73.0651 14.3212 72.5636 14.8212 71.9455 14.8212H70.7154V16.0513C70.7154 16.6694 70.2154 17.1694 69.5974 17.1694C68.9808 17.1694 68.4793 16.6694 68.4793 16.0513V14.8212H67.2492C66.6326 14.8212 66.1311 14.3212 66.1311 13.7031C66.1311 13.085 66.6326 12.585 67.2492 12.585H68.4793V11.355C68.4793 10.7369 68.9808 10.2369 69.5974 10.2369C70.2154 10.2369 70.7154 10.7369 70.7154 11.355V12.585H71.9455C72.5636 12.585 73.0651 13.085 73.0651 13.7031ZM42.7308 5.8979C42.7308 6.516 42.2308 7.016 41.6127 7.016H40.3826V8.24606C40.3826 8.86416 39.8826 9.36416 39.2645 9.36416C38.6464 9.36416 38.1464 8.86416 38.1464 8.24606V7.016H36.9164C36.2983 7.016 35.7983 6.516 35.7983 5.8979C35.7983 5.2798 36.2983 4.7798 36.9164 4.7798H38.1464V3.54974C38.1464 2.93164 38.6464 2.43164 39.2645 2.43164C39.8826 2.43164 40.3826 2.93164 40.3826 3.54974V4.7798H41.6127C42.2308 4.7798 42.7308 5.2798 42.7308 5.8979ZM38.9148 27.9209L34.7799 42.7016C33.7538 46.3688 31.2154 49.4562 27.8182 51.1755C25.8995 52.1449 23.7906 52.6357 21.6771 52.6357C20.4593 52.6357 19.2384 52.4715 18.0529 52.1449L12.5881 66.5881C12.8105 66.6709 13.0007 66.8228 13.1341 67.0206L18.0145 74.2538C18.378 74.7921 18.3519 75.4961 17.9486 76.0053C17.6602 76.3703 17.2308 76.5697 16.7875 76.5697C16.6111 76.5697 16.4317 76.5375 16.2599 76.4731L0.959291 70.6832C0.351929 70.4531 -0.0330404 69.8627 0.0022357 69.2139C0.0375118 68.5651 0.483831 68.0206 1.11267 67.8581L9.56052 65.6679C9.79058 65.6081 10.0329 65.6203 10.2553 65.7047L15.7231 51.2584C15.6848 51.2399 15.6464 51.2231 15.6081 51.2047C15.5605 51.1801 15.513 51.1556 15.4654 51.1311C15.3059 51.0482 15.1464 50.9639 14.99 50.8749C14.9516 50.8534 14.9133 50.8304 14.8749 50.809C14.7093 50.7123 14.5452 50.6126 14.3826 50.5099C14.3565 50.493 14.3289 50.4761 14.3029 50.4593C14.1249 50.3442 13.9516 50.2261 13.7814 50.105C13.7691 50.0973 13.7584 50.0881 13.7461 50.0789C12.99 49.536 12.2998 48.9225 11.6802 48.2491C11.6556 48.2231 11.6326 48.197 11.6096 48.1709C11.4884 48.0375 11.3703 47.9025 11.2553 47.7645C11.2078 47.7077 11.1633 47.651 11.1173 47.5942C11.0283 47.4853 10.9424 47.3764 10.8581 47.2645C10.7998 47.1893 10.7446 47.1142 10.6878 47.0375C10.6203 46.9439 10.5544 46.8488 10.4884 46.7537C10.4256 46.6633 10.3627 46.5728 10.3029 46.4807C10.2507 46.401 10.2016 46.3212 10.1525 46.2415C9.90561 45.8473 9.67862 45.4393 9.47156 45.0191C9.43936 44.9531 9.40408 44.8872 9.3734 44.8197C9.32126 44.7093 9.27218 44.5973 9.2231 44.4853C9.18169 44.3902 9.14028 44.2967 9.10193 44.2001C9.08353 44.1571 9.06359 44.1142 9.04518 44.0712C8.93782 43.8028 8.8412 43.5314 8.75224 43.2583C8.73537 43.2047 8.71696 43.151 8.70009 43.0973C8.66021 42.9685 8.62187 42.8366 8.58506 42.7062C8.55592 42.605 8.52985 42.5022 8.50224 42.401C8.49917 42.3826 8.49457 42.3657 8.48997 42.3473C7.96543 40.2737 7.92095 38.0544 8.45316 35.8565C8.45776 35.8335 8.46696 35.8136 8.4731 35.7921C8.69856 34.8734 9.02064 33.9746 9.43782 33.1111L16.1234 19.2967C16.72 18.0651 18.1326 17.5022 19.4118 17.9853L37.3182 24.7614C38.5973 25.2461 39.2829 26.6034 38.9148 27.9209ZM11.4302 68.6111L9.78291 67.9869L4.18015 69.4409L14.6679 73.4087L11.4302 68.6111ZM36.5023 26.9148L18.5973 20.1387C18.559 20.1249 18.5206 20.1172 18.4823 20.1172C18.3627 20.1172 18.2507 20.1847 18.1955 20.2982L11.5099 34.1142C11.3964 34.3473 11.2967 34.5835 11.2001 34.8212L14.9562 34.4792C15.5881 34.4194 16.1479 34.8872 16.2062 35.5206C16.2645 36.154 15.7983 36.7139 15.1648 36.7721L10.5375 37.1939C10.24 39.0037 10.3795 40.8749 10.97 42.6326C10.9777 42.6587 10.9869 42.6832 10.9961 42.7077C11.0452 42.8519 11.0989 42.9945 11.1541 43.1356C11.171 43.1817 11.1894 43.2277 11.2078 43.2737C11.2599 43.4025 11.3151 43.5298 11.3719 43.6571C11.3918 43.7001 11.4102 43.7445 11.4302 43.7875C11.5038 43.9455 11.5805 44.1004 11.6602 44.2537C11.6909 44.3136 11.7246 44.3718 11.7553 44.4301C11.8105 44.5298 11.8642 44.628 11.921 44.7261C11.9593 44.7906 11.9976 44.8534 12.036 44.9163C12.0943 45.0114 12.1541 45.105 12.2139 45.1985C12.2507 45.2537 12.2875 45.3105 12.3243 45.3657C12.401 45.4792 12.4808 45.5912 12.5605 45.7016C12.5851 45.7323 12.6065 45.766 12.6295 45.7967C12.8565 46.1004 13.0973 46.3918 13.3535 46.6694C13.3581 46.6755 13.3627 46.6801 13.3673 46.6847C13.493 46.8212 13.6219 46.9547 13.7538 47.085C13.7599 47.0912 13.766 47.0973 13.7722 47.1034C14.3228 47.6433 14.9286 48.128 15.582 48.5467C15.5835 48.5482 15.5851 48.5482 15.5881 48.5498C15.7384 48.6464 15.8918 48.7399 16.0467 48.8289C16.0743 48.8442 16.1019 48.8596 16.1295 48.8764C16.2614 48.9501 16.3949 49.0222 16.5298 49.0912C16.5697 49.1111 16.6096 49.1311 16.6495 49.151C16.7768 49.2154 16.9071 49.2768 17.0391 49.335C17.0805 49.355 17.1219 49.3749 17.1648 49.3933C17.3351 49.4669 17.5068 49.539 17.6817 49.605C20.6403 50.7246 23.9562 50.5482 26.7799 49.1203C29.6019 47.6924 31.7108 45.128 32.5621 42.0804L34.5437 35.0022L20.9654 36.2415C20.3305 36.2998 19.7722 35.8335 19.7139 35.2001C19.6556 34.5666 20.1219 34.0068 20.7553 33.9501L35.2062 32.6295L36.6986 27.2997C36.743 27.1402 36.6587 26.9746 36.5023 26.9148Z" fill="#05162D"/>
<path fill-rule="evenodd" clip-rule="evenodd" d="M77.5696 70.6832L62.269 76.473C62.0957 76.539 61.9178 76.5712 61.7414 76.5712C61.2981 76.5712 60.8687 76.3718 60.5804 76.0068C60.177 75.4976 60.1494 74.7936 60.5129 74.2552L65.3948 67.0206C65.5267 66.8243 65.7184 66.6724 65.9408 66.5881L60.4761 52.1463C59.2889 52.473 58.0696 52.6356 56.8518 52.6356C55.1064 52.6356 53.3641 52.3012 51.7307 51.6387C51.3856 51.4976 51.0451 51.3442 50.7107 51.1755C48.0558 49.8335 45.927 47.6555 44.6325 45.0175C44.2705 44.2782 43.973 43.5037 43.7491 42.7015L41.3181 34.0159L39.6141 27.9209C39.246 26.6049 39.9316 25.2475 41.2107 24.7629L59.1172 17.9868C60.3963 17.5037 61.8089 18.0666 62.4055 19.2966L69.0911 33.1126C69.5083 33.9761 69.8304 34.8748 70.0558 35.7936C70.062 35.815 70.0712 35.835 70.0758 35.8564C70.6064 38.0543 70.5635 40.2721 70.0405 42.3442C70.0359 42.3641 70.0297 42.3841 70.0251 42.404C69.9991 42.5052 69.973 42.6049 69.9454 42.7046C69.9086 42.838 69.8687 42.9699 69.8273 43.1018C69.8104 43.1525 69.7935 43.2046 69.7767 43.2568C69.6877 43.5313 69.5911 43.8028 69.4837 44.0727C69.4653 44.1172 69.4454 44.1601 69.427 44.2046C69.3886 44.2982 69.3472 44.3902 69.3074 44.4822C69.2567 44.5972 69.2077 44.7107 69.1555 44.8227C69.1248 44.8856 69.0926 44.9485 69.062 45.0114C68.8534 45.4377 68.6233 45.8503 68.3733 46.2491C68.3258 46.3258 68.2782 46.404 68.2276 46.4807C68.1662 46.5742 68.1034 46.6663 68.0389 46.7583C67.9745 46.8518 67.9086 46.9454 67.8426 47.0374C67.7859 47.1157 67.7276 47.1923 67.6708 47.2675C67.5865 47.3779 67.5006 47.4868 67.4132 47.5942C67.3672 47.6525 67.3212 47.7107 67.2736 47.7675C67.1586 47.904 67.0405 48.0374 66.9208 48.1709C66.8963 48.1969 66.8733 48.2246 66.8488 48.2506C66.2291 48.9255 65.5389 49.539 64.7843 50.0804C64.7721 50.0896 64.7583 50.0988 64.746 50.108C64.5773 50.2292 64.404 50.3457 64.2276 50.4592C64.2 50.4776 64.1724 50.4945 64.1448 50.5129C63.9837 50.6157 63.8212 50.7138 63.654 50.8104C63.6156 50.8319 63.5773 50.8549 63.5374 50.8779C63.3825 50.9654 63.223 51.0497 63.0635 51.1325C63.0159 51.1571 62.9684 51.1816 62.9208 51.2061C62.884 51.2246 62.8442 51.2414 62.8074 51.2598L68.2721 65.7062C68.496 65.6218 68.7383 65.6095 68.9684 65.6678L77.4162 67.8595C78.0451 68.0221 78.4914 68.5666 78.5267 69.2154C78.562 69.8641 78.177 70.4546 77.5696 70.6832ZM62.4807 48.8304C62.6371 48.7414 62.7905 48.6494 62.9408 48.5528C62.9439 48.5512 62.9454 48.5497 62.9469 48.5482C63.5988 48.1295 64.2046 47.6448 64.7567 47.1049C64.7629 47.0988 64.769 47.0926 64.7751 47.0865C64.907 46.9561 65.0359 46.8227 65.1616 46.6862C65.1662 46.6816 65.1708 46.677 65.1754 46.6724C65.43 46.3933 65.6724 46.1018 65.8978 45.7982C65.9224 45.7675 65.9439 45.7353 65.9669 45.7031C66.0481 45.5926 66.1264 45.4807 66.2046 45.3672C66.2414 45.312 66.2782 45.2568 66.315 45.2C66.3748 45.108 66.4347 45.0129 66.4914 44.9178C66.5313 44.8549 66.5696 44.792 66.6064 44.7276C66.6632 44.631 66.7184 44.5313 66.7721 44.4316C66.8043 44.3733 66.838 44.315 66.8687 44.2568C66.9485 44.1034 67.0251 43.9469 67.0988 43.789C67.1187 43.746 67.1371 43.7031 67.157 43.6586C67.2138 43.5313 67.269 43.404 67.3212 43.2752C67.3396 43.2291 67.358 43.1831 67.3748 43.1371C67.43 42.996 67.4837 42.8534 67.5328 42.7107C67.542 42.6847 67.5497 42.6601 67.5589 42.6356C68.1478 40.8764 68.2889 39.0052 67.9899 37.1954L53.5896 35.881C52.9561 35.8227 52.4899 35.2629 52.5481 34.6294C52.6064 33.9975 53.1647 33.5298 53.7997 33.588L67.3288 34.8242C67.2322 34.585 67.131 34.3488 67.019 34.1156L60.3334 20.3012C60.2598 20.1509 60.088 20.0819 59.9316 20.1402L42.0267 26.9163C41.8702 26.9761 41.7859 27.1417 41.8319 27.3012L43.3227 32.631L47.7261 33.0344C48.3595 33.0911 48.8258 33.6509 48.769 34.2844C48.7107 34.9178 48.1494 35.3856 47.5175 35.3258L43.9868 35.0037L45.9669 42.0819C46.8196 45.1295 48.927 47.6939 51.7491 49.1218C54.5727 50.5497 57.8886 50.7261 60.8472 49.6065C61.0221 49.5405 61.1939 49.4684 61.3641 49.3948C61.407 49.3764 61.4485 49.3565 61.4914 49.3365C61.6218 49.2782 61.7521 49.2169 61.8794 49.1525C61.9208 49.1325 61.9592 49.1126 61.9991 49.0926C62.134 49.0236 62.2675 48.9515 62.3994 48.8779C62.427 48.8611 62.4546 48.8457 62.4807 48.8304ZM74.3488 69.4424L68.746 67.9884L67.0972 68.6126L63.861 73.4102L74.3488 69.4424Z" fill="#05162D"/>
</svg>
