<svg width="78" height="59" viewBox="0 0 78 59" fill="none" xmlns="http://www.w3.org/2000/svg">
<g clip-path="url(#clip0)">
<path d="M24.6903 42.4492C25.7171 43.4963 25.9098 45.0751 25.2685 46.3227C25.1207 46.6103 24.928 46.8801 24.6903 47.1226C23.4266 48.4122 21.3769 48.4122 20.1109 47.1226C18.8472 45.8307 18.8472 43.7388 20.1109 42.4492C20.392 42.1624 20.7104 41.9408 21.0508 41.7815C22.2467 41.2218 23.707 41.4457 24.6903 42.4492ZM29.3894 47.2446C30.6554 48.5366 30.6554 50.6284 29.3894 51.918C28.1249 53.2076 26.0759 53.2076 24.8114 51.918C23.5455 50.6284 23.5455 48.5366 24.8114 47.2446C25.0925 46.9578 25.4109 46.7363 25.7514 46.5769C26.9473 46.0172 28.406 46.2411 29.3894 47.2446ZM33.9688 51.918C34.9454 52.9145 35.1678 54.3923 34.6331 55.608C34.4769 55.964 34.256 56.2998 33.9688 56.5914C32.7044 57.881 30.6554 57.881 29.3894 56.5914C28.1249 55.301 28.1249 53.2076 29.3894 51.918C30.6554 50.6276 32.7044 50.6276 33.9688 51.918ZM61.6779 30.3616C61.0167 34.1216 59.2427 37.5979 56.5805 40.317L54.7432 42.1919L40.5798 27.7373C40.5562 27.714 40.5348 27.6915 40.515 27.6736C40.5029 27.6627 40.4945 27.6526 40.4846 27.6425C40.4663 27.6238 40.4503 27.6091 40.4366 27.5951C40.4114 27.5679 40.3985 27.5562 40.3985 27.5562L38.4683 25.5849L33.7129 30.4378C32.9801 31.1856 32.0204 31.5579 31.0606 31.5579C30.1016 31.5579 29.1418 31.1856 28.409 30.4378C26.9443 28.943 26.9443 26.5185 28.409 25.0252L36.6128 16.6517C37.1482 16.1076 37.731 15.6396 38.3487 15.2517C39.8706 14.2925 41.6013 13.8129 43.3304 13.8129C44.6702 13.8129 46.0131 14.1005 47.2585 14.6773C49.2032 15.579 51.4891 15.1802 52.9989 13.6395L55.6154 10.9717L67.5728 23.1743L67.438 23.3119L62.9751 27.8664C62.3071 28.5481 61.8454 29.414 61.6779 30.3616Z" fill="#E6E6E6"/>
<path d="M76.67 17.0214L69.1077 24.7411L67.5728 23.1748L55.6154 10.9721L53.9792 9.30238L61.5431 1.58496L76.67 17.0214Z" fill="#3A67B1"/>
<path d="M50.9674 46.8312L51.9012 47.785C52.4741 48.3704 52.7612 49.1399 52.7612 49.9079C52.7612 50.676 52.4741 51.4447 51.9012 52.0316C50.7495 53.2046 48.8879 53.2046 47.7384 52.0316L45.5363 49.7836C46.0939 50.365 46.3712 51.1229 46.3712 51.8793C46.3712 52.6488 46.084 53.4169 45.5097 54.003C44.3618 55.1744 42.4978 55.1744 41.3499 54.003L38.5133 51.1097C39.6627 52.2812 39.6627 54.181 38.5133 55.354C37.9405 55.9424 37.1864 56.2355 36.4338 56.2355C35.7977 56.2355 35.1609 56.0264 34.6346 55.6082H34.6331C35.1678 54.3932 34.9454 52.9147 33.9689 51.9181C32.7044 50.6285 30.6554 50.6285 29.3894 51.9181C30.6546 50.6285 30.6546 48.5367 29.3894 47.2448C28.406 46.2412 26.9473 46.0174 25.7514 46.5771L25.609 46.4309L25.5062 46.326L25.2685 46.3229C25.9091 45.0752 25.7164 43.4965 24.6904 42.4494C23.707 41.4458 22.2468 41.222 21.0509 41.7816L19.6158 40.3171C16.9818 37.6283 15.2192 34.1979 14.5397 30.4854C14.3538 29.4585 13.8587 28.5156 13.1343 27.7771L10.0585 24.6374L24.3133 10.0903L28.3078 14.1667C29.7284 15.6164 31.8391 16.0447 33.7282 15.3436C34.515 15.0513 35.3438 14.9059 36.171 14.9059C36.9053 14.9059 37.6411 15.021 38.3487 15.2519C37.731 15.6398 37.1483 16.1077 36.6128 16.6518L28.4091 25.0253C26.9443 26.5194 26.9443 28.9431 28.4091 30.4379C29.1418 31.1857 30.1016 31.5589 31.0606 31.5589C32.0204 31.5589 32.9801 31.1857 33.7129 30.4379L38.4683 25.585L40.3985 27.5564C40.3985 27.5564 40.4115 27.568 40.4366 27.5952C40.4503 27.6092 40.4663 27.624 40.4846 27.6426C40.4945 27.6527 40.5029 27.6636 40.5151 27.6737C40.5349 27.6916 40.5562 27.7142 40.5798 27.7375L54.7432 42.1921L55.1286 42.5862C55.703 43.1715 55.9901 43.9411 55.9901 44.7091C55.9901 45.4763 55.703 46.2444 55.1286 46.8312C53.9792 48.0058 52.1168 48.0058 50.9674 46.8312Z" fill="#C2DE78"/>
<path d="M24.3133 10.0905L10.0585 24.6376L8.72623 25.9971L1.16236 18.2774L18.0009 1.09277L25.5655 8.81252L24.3133 10.0905Z" fill="#87AF1B"/>
<path fill-rule="evenodd" clip-rule="evenodd" d="M78.0007 17.1908C78.0007 17.5274 77.8689 17.8508 77.6358 18.0894L70.072 25.8084C69.8282 26.0571 69.5098 26.1807 69.1907 26.1807C68.8715 26.1807 68.5531 26.0571 68.3101 25.8084L67.6566 25.1414L63.9394 28.9348C63.4366 29.4479 63.1076 30.0775 62.988 30.7546C62.2766 34.7999 60.3943 38.4759 57.5455 41.3839L56.5461 42.4038C57.0481 43.122 57.3193 43.9779 57.3193 44.8773C57.3193 46.0192 56.8836 47.0927 56.0929 47.8996C55.5049 48.5005 54.7713 48.9 53.9738 49.0656C54.0508 49.3928 54.0919 49.731 54.0919 50.0761C54.0919 51.2188 53.6562 52.2923 52.8655 53.0992C52.0482 53.9325 50.9749 54.3484 49.9032 54.3484C49.0371 54.3484 48.1718 54.0771 47.4413 53.5345C47.2349 54.1051 46.9089 54.6274 46.4747 55.0705C45.6581 55.9038 44.5856 56.3205 43.5139 56.3205C42.4414 56.3205 41.3689 55.9038 40.5523 55.0705L40.4251 54.9407C40.2172 55.4895 39.8988 55.9932 39.4791 56.4215C38.6899 57.23 37.6372 57.6754 36.5168 57.6754C36.0452 57.6754 35.5791 57.5914 35.138 57.4352C35.0725 57.5106 35.0047 57.586 34.9339 57.6591C34.0869 58.5235 32.9611 58.9992 31.7636 58.9992C30.5654 58.9992 29.4396 58.5235 28.5926 57.6591C27.6938 56.7418 27.2588 55.5284 27.284 54.3235C27.2504 54.3243 27.2177 54.3266 27.1842 54.3266C25.9868 54.3266 24.8609 53.8501 24.0139 52.9865C23.0831 52.0358 22.6481 50.7687 22.7083 49.5219C22.6337 49.5258 22.559 49.5281 22.4844 49.5281C21.3365 49.5281 20.1886 49.0819 19.3141 48.1903C18.4671 47.3259 18.0009 46.177 18.0009 44.955C18.0009 43.7735 18.4381 42.6611 19.2318 41.8076L18.8182 41.3855C16.0029 38.5101 14.1291 34.8799 13.4001 30.8867C13.2592 30.1172 12.8921 29.4113 12.3375 28.8454L10.1415 26.6052L9.69055 27.0653C9.4567 27.304 9.14059 27.4377 8.81 27.4377C8.47942 27.4377 8.16254 27.304 7.92869 27.0653L0.364829 19.3464C-0.12191 18.8496 -0.12191 18.0451 0.364829 17.5484L17.2041 0.363751C17.6901 -0.132969 18.4793 -0.132969 18.966 0.363751L26.5299 8.08272C26.7629 8.32137 26.8947 8.64474 26.8947 8.98211C26.8947 9.31869 26.7629 9.64207 26.5299 9.88071L26.1589 10.2593L29.2728 13.4363C30.34 14.5253 31.916 14.8635 33.3861 14.3185C34.307 13.9765 35.2721 13.8039 36.2547 13.8039C36.9342 13.8039 37.6068 13.8879 38.2626 14.0527C39.834 13.1743 41.6035 12.711 43.4141 12.711C44.9383 12.711 46.4747 13.0491 47.8565 13.6889C49.3304 14.3714 51.077 14.0581 52.2021 12.91L53.9365 11.1408L53.1816 10.3704C52.9485 10.1326 52.8168 9.80919 52.8168 9.47183C52.8168 9.13446 52.9485 8.81109 53.1816 8.57323L60.7455 0.854251C61.2322 0.357532 62.0206 0.357532 62.5074 0.854251L77.6351 16.2922C77.8689 16.5308 78.0007 16.8534 78.0007 17.1908ZM65.8939 23.3442L55.6983 12.9388L53.9639 14.708C52.1084 16.6008 49.2397 17.1216 46.8266 16.0046C45.7655 15.5133 44.5856 15.2529 43.4134 15.2529C41.8785 15.2529 40.3825 15.6851 39.0868 16.5021C38.5414 16.8457 38.0341 17.2553 37.5778 17.7209L29.3741 26.0929C28.9003 26.5764 28.6398 27.2177 28.6398 27.901C28.6398 28.5835 28.9003 29.2256 29.3734 29.7083C30.3499 30.7048 31.9388 30.7048 32.9161 29.7083L37.6692 24.8577C37.67 24.8569 37.6708 24.8561 37.6715 24.8554C37.6723 24.8538 37.673 24.8538 37.6738 24.8523L39.7411 22.7426C40.2278 22.2466 41.0162 22.2466 41.503 22.7426C41.9889 23.2393 41.9889 24.0446 41.503 24.5405L40.3132 25.7547L41.362 26.8259C41.3628 26.8259 41.3628 26.8259 41.3628 26.8259L41.4017 26.8656C41.4017 26.8656 41.4017 26.8656 41.4024 26.8656L41.4466 26.9106C41.4534 26.9176 41.4611 26.9246 41.4679 26.9316C41.896 27.3568 45.7396 31.0469 48.9457 29.7075C49.5833 29.4417 50.31 29.7534 50.5705 30.4032C50.831 31.0531 50.5263 31.7954 49.8895 32.0613C49.0767 32.4002 48.2594 32.5432 47.4619 32.5432C47.2882 32.5432 47.1168 32.5347 46.9454 32.5215L54.8262 40.5638L55.7837 39.5867C58.2707 37.0471 59.9145 33.8383 60.536 30.3061C60.7447 29.1152 61.313 28.0191 62.1775 27.1376L65.8939 23.3442ZM54.8277 44.8773C54.8277 44.4155 54.6518 43.9802 54.3311 43.6537L39.7243 28.7475C39.7129 28.7358 39.7007 28.7242 39.6885 28.7125L39.6878 28.7117C39.6878 28.711 39.687 28.711 39.687 28.711L39.6451 28.6682L39.6017 28.6239C39.6017 28.6231 39.601 28.6231 39.601 28.6231L38.5521 27.552L34.678 31.5055C33.7037 32.4989 32.424 32.9964 31.1451 32.9964C29.8654 32.9964 28.5865 32.4997 27.6123 31.5055C26.6685 30.5424 26.149 29.2621 26.149 27.9002C26.149 26.5383 26.6685 25.258 27.6123 24.2949L35.3254 16.4236C34.956 16.4826 34.5904 16.5767 34.2377 16.7081C33.5095 16.9778 32.7539 17.1092 32.0066 17.1092C30.3369 17.1092 28.7076 16.4554 27.511 15.2342L24.3978 12.0565L11.9041 24.8064L14.1001 27.0475C15.0112 27.9779 15.616 29.1447 15.849 30.4211C16.4858 33.9075 18.122 37.0775 20.5808 39.5875L21.4736 40.4993C22.93 40.1573 24.5227 40.5638 25.6546 41.7189C26.5855 42.6689 27.0204 43.9351 26.9602 45.1812C27.0349 45.1773 27.1095 45.175 27.1842 45.175C28.3816 45.175 29.5082 45.6515 30.3545 46.5151C31.2533 47.4324 31.689 48.6458 31.6631 49.8507C31.6966 49.8499 31.7301 49.8484 31.7636 49.8484C32.9611 49.8484 34.0869 50.3241 34.9339 51.1885C35.9767 52.2527 36.3972 53.7148 36.1953 55.1008C36.3004 55.121 36.4078 55.1327 36.5168 55.1327C36.9707 55.1327 37.3958 54.9524 37.7157 54.6251C38.0371 54.2971 38.2139 53.8625 38.2139 53.4C38.2139 52.9383 38.0379 52.5045 37.718 52.178C37.7157 52.1765 37.7134 52.1734 37.7111 52.171L29.5706 43.8636C29.0847 43.3677 29.0847 42.5624 29.5706 42.0664C30.0574 41.5697 30.8458 41.5697 31.3325 42.0664L42.3142 53.2725C42.9761 53.948 44.0517 53.948 44.7128 53.2725C45.0328 52.9461 45.2095 52.5115 45.2095 52.049C45.2095 51.5943 45.0389 51.1659 44.7296 50.8426L34.6018 40.5071C34.1151 40.0104 34.1151 39.2058 34.6018 38.7091C35.0878 38.2124 35.8769 38.2124 36.3636 38.7091L46.4587 49.0112C46.4625 49.015 46.4671 49.0182 46.4701 49.022C46.4831 49.0353 46.4953 49.0477 46.5067 49.0609L48.7035 51.302C49.3647 51.9767 50.4417 51.9767 51.1037 51.302C51.4236 50.9747 51.5995 50.5402 51.5995 50.0769C51.5995 49.6144 51.4236 49.1798 51.1029 48.8534L38.0851 35.5694C37.5984 35.0735 37.5984 34.2682 38.0851 33.7714C38.5711 33.2747 39.3595 33.2747 39.847 33.7714L51.9324 46.1016C52.2531 46.4296 52.6789 46.61 53.1314 46.61C53.5846 46.61 54.0104 46.4296 54.3303 46.1024C54.651 45.7751 54.8277 45.3406 54.8277 44.8773ZM33.1713 52.9865C32.7836 52.59 32.2732 52.3918 31.7636 52.3918C31.2533 52.3918 30.7429 52.59 30.3545 52.9865C29.5775 53.7794 29.5775 55.069 30.3545 55.8619C30.7307 56.2459 31.2312 56.4573 31.7636 56.4573C32.2953 56.4573 32.7958 56.2459 33.1713 55.8619C33.9482 55.069 33.9482 53.7794 33.1713 52.9865ZM28.5926 51.1885C29.3695 50.3956 29.3695 49.106 28.5926 48.3139C28.2041 47.9174 27.6938 47.7192 27.1842 47.7192C26.6738 47.7192 26.1642 47.9174 25.7758 48.3139C24.9988 49.106 24.9988 50.3956 25.7758 51.1885C26.1521 51.5725 26.6517 51.7839 27.1842 51.7839C27.7166 51.7839 28.2163 51.5725 28.5926 51.1885ZM23.8928 46.3931C24.6697 45.6002 24.6697 44.3106 23.8928 43.5177C23.5043 43.1213 22.9947 42.923 22.4844 42.923C21.974 42.923 21.4644 43.1213 21.076 43.5177C20.6997 43.9017 20.4925 44.4124 20.4925 44.955C20.4925 45.4984 20.6997 46.0083 21.076 46.3931C21.8529 47.1852 23.1166 47.1852 23.8928 46.3931ZM8.81 24.3687L23.8867 8.98211L18.0847 3.06112L3.00723 18.4478L8.81 24.3687ZM74.9927 17.1908L61.6268 3.55084L55.824 9.47183L69.1899 23.1118L74.9927 17.1908ZM70.4452 16.8915C71.1331 16.8915 71.6914 17.4613 71.6914 18.1633C71.6914 18.8652 71.1331 19.4342 70.4452 19.4342C69.7574 19.4342 69.1998 18.8652 69.1998 18.1633C69.1998 17.4613 69.7574 16.8915 70.4452 16.8915ZM8.16026 18.1477C8.84885 18.1477 9.40643 18.7167 9.40643 19.4194C9.40643 20.1214 8.84885 20.6904 8.16026 20.6904C7.47242 20.6904 6.91485 20.1214 6.91485 19.4194C6.91485 18.7167 7.47242 18.1477 8.16026 18.1477Z" fill="#05162D"/>
</g>
<defs>
<clipPath id="clip0">
<rect width="78" height="59" fill="white"/>
</clipPath>
</defs>
</svg>
