<svg width="55" height="57" viewBox="0 0 55 57" fill="none" xmlns="http://www.w3.org/2000/svg">
<path d="M16.4766 37.3506C16.4766 40.7322 13.7069 43.4736 10.2905 43.4736C6.87406 43.4736 4.10438 40.7322 4.10438 37.3506C4.10438 33.969 6.87406 31.2275 10.2905 31.2275C13.7069 31.2275 16.4766 33.969 16.4766 37.3506ZM16.3776 56.165H4.20336C2.34753 56.165 0.842621 54.6755 0.842621 52.8386V52.8252C0.842621 47.6607 5.07278 43.4736 10.2905 43.4736C15.5082 43.4736 19.7383 47.6607 19.7383 52.8252V52.8386C19.7383 54.6755 18.2334 56.165 16.3776 56.165Z" fill="#A6CE39"/>
<path d="M10.292 31.2275C9.70661 31.2275 9.14142 31.3099 8.60492 31.4602C11.2008 32.1866 13.1039 34.5485 13.1039 37.3506C13.1039 40.1527 11.2008 42.5145 8.60492 43.241C9.14142 43.3913 9.70661 43.4736 10.292 43.4736C13.7084 43.4736 16.4781 40.7322 16.4781 37.3506C16.4781 33.969 13.7084 31.2275 10.292 31.2275ZM10.292 43.4736C9.71617 43.4736 9.15267 43.5276 8.60492 43.6256C13.0173 44.4132 16.3657 48.2307 16.3657 52.8252V52.8386C16.3657 54.6755 14.8607 56.165 13.0049 56.165H16.3792C18.235 56.165 19.7399 54.6755 19.7399 52.8386V52.8252C19.7399 47.6607 15.5097 43.4736 10.292 43.4736Z" fill="#52B833"/>
<path d="M50.8962 37.3506C50.8962 40.7322 48.1265 43.4736 44.7101 43.4736C41.2937 43.4736 38.524 40.7322 38.524 37.3506C38.524 33.969 41.2937 31.2275 44.7101 31.2275C48.1265 31.2275 50.8962 33.969 50.8962 37.3506ZM50.7972 56.165H38.623C36.7672 56.165 35.2623 54.6755 35.2623 52.8386V52.8252C35.2623 47.6607 39.4924 43.4736 44.7101 43.4736C49.9278 43.4736 54.158 47.6607 54.158 52.8252V52.8386C54.158 54.6755 52.6531 56.165 50.7972 56.165Z" fill="#3A67B1"/>
<path d="M44.7089 31.2275C44.1234 31.2275 43.5583 31.3099 43.0218 31.4602C45.6177 32.1866 47.5207 34.5485 47.5207 37.3506C47.5207 40.1527 45.6177 42.5145 43.0218 43.241C43.5583 43.3913 44.1234 43.4736 44.7089 43.4736C48.1253 43.4736 50.895 40.7322 50.895 37.3506C50.895 33.969 48.1253 31.2275 44.7089 31.2275ZM44.7089 43.4736C44.133 43.4736 43.5695 43.5276 43.0218 43.6256C47.4341 44.4132 50.7825 48.2307 50.7825 52.8252V52.8386C50.7825 54.6755 49.2776 56.165 47.4218 56.165H50.796C52.6518 56.165 54.1567 54.6755 54.1567 52.8386V52.8252C54.1567 47.6607 49.9266 43.4736 44.7089 43.4736Z" fill="#0F3982"/>
<path d="M33.6863 37.3506C33.6863 40.7322 30.9166 43.4736 27.5002 43.4736C24.0838 43.4736 21.3141 40.7322 21.3141 37.3506C21.3141 33.969 24.0838 31.2275 27.5002 31.2275C30.9166 31.2275 33.6863 33.969 33.6863 37.3506ZM33.5873 56.165H21.4131C19.5573 56.165 18.0524 54.6755 18.0524 52.8386V52.8252C18.0524 47.6607 22.2825 43.4736 27.5002 43.4736C32.7179 43.4736 36.9481 47.6607 36.9481 52.8252V52.8386C36.9481 54.6755 35.4432 56.165 33.5873 56.165Z" fill="#FFDB43"/>
<path d="M27.4991 31.2275C26.9136 31.2275 26.3485 31.3099 25.812 31.4602C28.4079 32.1866 30.3109 34.5485 30.3109 37.3506C30.3109 40.1527 28.4079 42.5145 25.812 43.241C26.3485 43.3913 26.9136 43.4736 27.4991 43.4736C30.9155 43.4736 33.6852 40.7322 33.6852 37.3506C33.6852 33.969 30.9155 31.2275 27.4991 31.2275ZM27.4991 43.4736C26.9232 43.4736 26.3597 43.5276 25.812 43.6256C30.2243 44.4132 33.5727 48.2307 33.5727 52.8252V52.8386C33.5727 54.6755 32.0678 56.165 30.212 56.165H33.5862C35.442 56.165 36.9469 54.6755 36.9469 52.8386V52.8252C36.9469 47.6607 32.7168 43.4736 27.4991 43.4736Z" fill="#FFBB43"/>
<path d="M31.4778 3.92529H46.6899C49.4152 3.92529 51.6248 6.11011 51.6248 8.80592V20.5588C51.6248 23.2546 49.4152 25.4395 46.6899 25.4395H41.8777C41.5032 31.6944 37.2027 31.4055 35.492 31.0376C35.3553 31.0081 35.3593 30.8144 35.4976 30.7899C38.7791 30.2088 37.3563 25.4395 37.3563 25.4395H31.4783C28.7525 25.4395 26.543 23.2546 26.543 20.5588V8.80592C26.543 6.11011 28.7525 3.92529 31.4778 3.92529Z" fill="#A6CE39"/>
<path d="M46.6918 3.92529H43.3175C46.0428 3.92529 48.2524 6.11011 48.2524 8.80592V20.5588C48.2524 23.2546 46.0428 25.4395 43.3175 25.4395H46.6918C49.417 25.4395 51.6266 23.2546 51.6266 20.5588V8.80592C51.6266 6.11011 49.417 3.92529 46.6918 3.92529Z" fill="#52B833"/>
<path d="M23.5227 0.834961H8.31058C5.58532 0.834961 3.37576 3.02033 3.37576 5.71559V17.4691C3.37576 20.1649 5.58532 22.3497 8.31058 22.3497H13.1228C13.4973 28.6041 17.7978 28.3158 19.5085 27.9478C19.6452 27.9183 19.6413 27.7246 19.5029 27.7001C16.2215 27.1184 17.6443 22.3497 17.6443 22.3497H23.5222C26.248 22.3497 28.4576 20.1649 28.4576 17.4691V5.71559C28.4576 3.02033 26.248 0.834961 23.5227 0.834961Z" fill="#A6CE39"/>
<path d="M23.5193 0.834961H20.1451C22.8703 0.834961 25.0799 3.02033 25.0799 5.71559V17.4691C25.0799 20.1643 22.8703 22.3497 20.1451 22.3497H23.5193C26.2446 22.3497 28.4541 20.1649 28.4541 17.4691V5.71559C28.4541 3.02033 26.2446 0.834961 23.5193 0.834961Z" fill="#52B833"/>
<path d="M22.8887 9.95273C22.8887 12.3368 20.9761 15.1456 16.2538 17.6188C16.0429 17.7284 15.7876 17.7284 15.5767 17.6188C10.8545 15.1456 8.94186 12.3374 8.94186 9.95273C8.94186 7.83193 10.3647 6.01172 12.4286 6.01172C13.9638 6.01172 14.9958 6.79157 15.5171 7.31704C15.7336 7.53469 16.0969 7.53469 16.3134 7.31704C16.8348 6.79157 17.8667 6.01172 19.402 6.01172C21.4659 6.01172 22.8887 7.83193 22.8887 9.95273Z" fill="#CF394E"/>
<path d="M19.4037 6.01172C18.6946 6.01172 18.0945 6.17871 17.6013 6.40972C18.7812 7.05876 19.5162 8.4281 19.5162 9.95273C19.5162 12.0958 17.9703 14.5812 14.2299 16.8573C14.6517 17.1139 15.0999 17.3683 15.5785 17.6188C15.7894 17.7284 16.0447 17.7284 16.2556 17.6188C20.9778 15.1456 22.8905 12.3374 22.8905 9.95273C22.8905 7.83193 21.4677 6.01172 19.4037 6.01172Z" fill="#AF1B2F"/>
<path d="M12.6886 38.4626C12.6779 38.4687 11.5661 39.0549 10.2929 39.0549C9.02135 39.0549 7.91572 38.4732 7.89491 38.462C7.48663 38.2411 6.97544 38.3886 6.75105 38.7916C6.5261 39.1957 6.67513 39.7034 7.08341 39.926C7.14302 39.9589 8.57032 40.7253 10.2929 40.7253C12.0154 40.7253 13.4427 39.9589 13.5023 39.926C13.9106 39.7034 14.0596 39.1957 13.8347 38.7916C13.6097 38.388 13.0974 38.2405 12.6886 38.4626ZM9.52636 35.6777C9.52636 36.1386 9.14844 36.5127 8.6828 36.5127C8.21659 36.5127 7.83924 36.1386 7.83924 35.6777C7.83924 35.2163 8.21659 34.8428 8.6828 34.8428C9.14844 34.8428 9.52636 35.2163 9.52636 35.6777ZM12.7465 35.6777C12.7465 36.1386 12.3691 36.5127 11.9029 36.5127C11.4373 36.5127 11.0594 36.1386 11.0594 35.6777C11.0594 35.2163 11.4373 34.8428 11.9029 34.8428C12.3691 34.8428 12.7465 35.2163 12.7465 35.6777Z" fill="#05162D"/>
<path fill-rule="evenodd" clip-rule="evenodd" d="M55 52.8251V52.8384C55 55.1329 53.1138 56.9999 50.7957 56.9999H38.6215C37.7065 56.9999 36.8247 56.7037 36.1037 56.1699C35.4019 56.6909 34.5308 56.9999 33.5871 56.9999H21.4129C20.4692 56.9999 19.5981 56.6909 18.8963 56.1699C18.1753 56.7037 17.2935 56.9999 16.3785 56.9999H4.20429C1.8862 56.9999 0 55.1329 0 52.8384V52.8251C0 51.4218 0.283436 50.0624 0.842433 48.7838C1.02745 48.3608 1.52347 48.166 1.95143 48.3491C2.37883 48.5317 2.57566 49.0232 2.39064 49.4462C1.92387 50.5144 1.68712 51.6511 1.68712 52.8251V52.8384C1.68712 54.2122 2.81636 55.3299 4.20429 55.3299H16.3785C16.8779 55.3299 17.3621 55.1819 17.7704 54.9136C17.4139 54.3024 17.2086 53.5938 17.2086 52.8384V52.8251C17.2086 51.4652 17.4797 50.1671 17.9706 48.9798C17.5589 48.176 17.0247 47.4446 16.3763 46.8022C14.751 45.1941 12.5904 44.3084 10.2914 44.3084C8.03236 44.3084 5.89816 45.1685 4.28134 46.7304C3.94841 47.0527 3.41416 47.046 3.08855 46.7165C2.76293 46.3864 2.76968 45.8576 3.10317 45.5353C4.13175 44.5417 5.33691 43.7874 6.64555 43.2976C4.6182 42.0752 3.26176 39.8665 3.26176 37.3504C3.26176 33.5135 6.41554 30.3924 10.2914 30.3924C14.1678 30.3924 17.3211 33.5135 17.3211 37.3504C17.3211 39.8665 15.9652 42.0746 13.939 43.2965C15.2853 43.8002 16.5208 44.584 17.5691 45.6216C18.0701 46.1181 18.5133 46.6597 18.8974 47.2403C20.0817 45.4596 21.8144 44.0663 23.8564 43.2987C21.8279 42.0769 20.4703 39.8676 20.4703 37.3504C20.4703 33.5135 23.6241 30.3924 27.5 30.3924C31.3764 30.3924 34.5296 33.5135 34.5296 37.3504C34.5296 39.8676 33.1726 42.0769 31.1442 43.2987C33.1856 44.0663 34.9183 45.459 36.102 47.2397C37.3033 45.4306 39.0517 44.0574 41.0678 43.3004C39.0376 42.0791 37.6789 39.8687 37.6789 37.3504C37.6789 33.5135 40.8327 30.3924 44.7086 30.3924C48.5845 30.3924 51.7382 33.5135 51.7382 37.3504C51.7382 39.8681 50.3807 42.0774 48.3516 43.2993C49.4657 43.7162 50.5072 44.3235 51.4227 45.1044C51.7754 45.405 51.8153 45.9322 51.511 46.2817C51.2068 46.6313 50.6748 46.6703 50.3211 46.3691C48.7627 45.0404 46.7697 44.3084 44.7086 44.3084C41.4626 44.3084 38.4876 46.1309 37.0294 48.9803C37.5203 50.1676 37.7914 51.4652 37.7914 52.8251V52.8384C37.7914 53.5938 37.5861 54.3024 37.2296 54.9136C37.6379 55.1819 38.1221 55.3299 38.6215 55.3299H50.7951C52.1836 55.3299 53.3129 54.2122 53.3129 52.8384V52.8251C53.3129 51.4362 52.9867 50.1131 52.3422 48.8913C52.1268 48.4821 52.2877 47.9784 52.7005 47.7646C53.1138 47.552 53.6233 47.7106 53.8381 48.1192C54.5985 49.5609 55 51.188 55 52.8251ZM27.5 42.6385C30.4457 42.6385 32.8425 40.2661 32.8425 37.3504C32.8425 34.4348 30.4457 32.0624 27.5 32.0624C24.5543 32.0624 22.1575 34.4348 22.1575 37.3504C22.1575 40.2661 24.5543 42.6385 27.5 42.6385ZM10.2914 42.6385C13.2371 42.6385 15.6339 40.2661 15.6339 37.3504C15.6339 34.4348 13.2371 32.0624 10.2914 32.0624C7.3457 32.0624 4.94887 34.4348 4.94887 37.3504C4.94887 40.2661 7.3457 42.6385 10.2914 42.6385ZM44.7086 42.6385C47.6543 42.6385 50.0511 40.2661 50.0511 37.3504C50.0511 34.4348 47.6543 32.0624 44.7086 32.0624C41.7629 32.0624 39.3661 34.4348 39.3661 37.3504C39.3661 40.2661 41.7629 42.6385 44.7086 42.6385ZM33.5871 55.3299C34.975 55.3299 36.1043 54.2122 36.1043 52.8384V52.8251C36.1043 48.1287 32.2447 44.3084 27.5 44.3084C22.7553 44.3084 18.8957 48.1287 18.8957 52.8251V52.8384C18.8957 54.2122 20.0249 55.3299 21.4129 55.3299H33.5871ZM48.2504 38.7916C48.4754 39.1957 48.3263 39.7034 47.918 39.926C47.8584 39.9589 46.4311 40.7254 44.7086 40.7254C42.986 40.7254 41.5587 39.9589 41.4991 39.926C41.0908 39.7034 40.9418 39.1957 41.1668 38.7916C41.3912 38.3886 41.9023 38.2411 42.3106 38.4621C42.3314 38.4732 43.4371 39.0549 44.7086 39.0549C45.9818 39.0549 47.0936 38.4687 47.1043 38.4626C47.5126 38.2405 48.0255 38.388 48.2504 38.7916ZM43.9421 35.6777C43.9421 36.1386 43.5642 36.5127 43.0985 36.5127C42.6323 36.5127 42.255 36.1386 42.255 35.6777C42.255 35.2163 42.6323 34.8428 43.0985 34.8428C43.5642 34.8428 43.9421 35.2163 43.9421 35.6777ZM47.1622 35.6777C47.1622 36.1386 46.7849 36.5127 46.3187 36.5127C45.853 36.5127 45.4751 36.1386 45.4751 35.6777C45.4751 35.2163 45.853 34.8428 46.3187 34.8428C46.7849 34.8428 47.1622 35.2163 47.1622 35.6777ZM31.0418 38.7916C31.2668 39.1957 31.1177 39.7034 30.7095 39.926C30.6498 39.9589 29.2225 40.7254 27.5 40.7254C25.7775 40.7254 24.3502 39.9589 24.2905 39.926C23.8823 39.7034 23.7332 39.1957 23.9582 38.7916C24.1826 38.3886 24.6943 38.2411 25.102 38.4621C25.1229 38.4732 26.2285 39.0549 27.5 39.0549C28.7732 39.0549 29.885 38.4687 29.8957 38.4626C30.3045 38.2405 30.8169 38.388 31.0418 38.7916ZM26.7335 35.6777C26.7335 36.1386 26.3556 36.5127 25.8899 36.5127C25.4237 36.5127 25.0464 36.1386 25.0464 35.6777C25.0464 35.2163 25.4237 34.8428 25.8899 34.8428C26.3556 34.8428 26.7335 35.2163 26.7335 35.6777ZM29.9536 35.6777C29.9536 36.1386 29.5763 36.5127 29.1101 36.5127C28.6444 36.5127 28.2665 36.1386 28.2665 35.6777C28.2665 35.2163 28.6444 34.8428 29.1101 34.8428C29.5763 34.8428 29.9536 35.2163 29.9536 35.6777ZM32.2802 10.8833C32.2802 10.4218 32.6581 10.0483 33.1237 10.0483H45.046C45.5117 10.0483 45.8896 10.4218 45.8896 10.8833C45.8896 11.3442 45.5117 11.7183 45.046 11.7183H33.1237C32.6581 11.7183 32.2802 11.3442 32.2802 10.8833ZM32.2802 14.2231C32.2802 13.7617 32.6581 13.3882 33.1237 13.3882H45.046C45.5117 13.3882 45.8896 13.7617 45.8896 14.2231C45.8896 14.684 45.5117 15.0581 45.046 15.0581H33.1237C32.6581 15.0581 32.2802 14.684 32.2802 14.2231ZM32.2802 17.563C32.2802 17.1015 32.6581 16.728 33.1237 16.728H45.046C45.5117 16.728 45.8896 17.1015 45.8896 17.563C45.8896 18.0239 45.5117 18.3979 45.046 18.3979H33.1237C32.6581 18.3979 32.2802 18.0239 32.2802 17.563Z" fill="#05162D"/>
<path fill-rule="evenodd" clip-rule="evenodd" d="M2.53067 17.4691V5.71559C2.53067 2.56389 5.12264 0 8.30905 0H9.50409C9.96973 0 10.3476 0.373506 10.3476 0.834961C10.3476 1.29642 9.96973 1.66992 9.50409 1.66992H8.30905C6.05281 1.66992 4.21779 3.48457 4.21779 5.71559V17.4691C4.21779 19.7001 6.05281 21.5147 8.30905 21.5147H13.1213C13.5678 21.5147 13.9367 21.8593 13.9637 22.3001C14.0874 24.3697 14.6723 25.8114 15.702 26.5846C16.1671 26.9336 16.6923 27.1212 17.2097 27.2097C17.176 27.1618 17.1434 27.1129 17.1124 27.0628C15.9584 25.213 16.7407 22.4248 16.834 22.1131C16.9398 21.758 17.2688 21.5147 17.6427 21.5147H23.5212C25.7775 21.5147 27.6125 19.7001 27.6125 17.4691V5.71559C27.6125 3.48457 25.7775 1.66992 23.5212 1.66992H13.1033C12.6376 1.66992 12.2597 1.29642 12.2597 0.834961C12.2597 0.373506 12.6376 0 13.1033 0H23.5212C25.9833 0 28.0894 1.53188 28.9206 3.68218C29.7113 3.29698 30.5891 3.09047 31.4793 3.09047H46.6904C49.8768 3.09047 52.4693 5.65436 52.4693 8.80605V20.559C52.4693 23.7101 49.8768 26.2745 46.6904 26.2745H42.6509C42.3899 28.4477 41.6077 30.0369 40.3187 31.0049C39.2496 31.807 38.0242 32.0352 36.9782 32.0352C36.3276 32.0352 35.7461 31.9467 35.3147 31.8543C34.8541 31.7536 34.5403 31.3595 34.5493 30.8958C34.5589 30.4393 34.8941 30.0491 35.3485 29.9679C35.8625 29.8771 36.2128 29.6578 36.4507 29.2776C36.9535 28.4749 36.8494 27.1368 36.688 26.2745H31.4793C29.06 26.2745 26.9202 24.756 26.0794 22.5918C25.3079 22.9703 24.4396 23.1846 23.5207 23.1846H18.312C18.1506 24.0458 18.0465 25.3839 18.5493 26.1872C18.7872 26.5679 19.1375 26.7872 19.6504 26.8779C20.1059 26.9587 20.4428 27.35 20.4507 27.807C20.4591 28.2645 20.1374 28.6664 19.6853 28.7633C19.2545 28.8562 18.6719 28.9442 18.0212 28.9442C16.9758 28.9442 15.7509 28.7171 14.6824 27.915C13.3929 26.9475 12.6101 25.3578 12.3491 23.1846H8.30905C5.12264 23.1846 2.53067 20.6208 2.53067 17.4691ZM27.5219 21.5871C27.9876 23.3344 29.6162 24.6046 31.4793 24.6046H37.3573C37.7312 24.6046 38.0602 24.8484 38.166 25.203C38.2593 25.5153 39.0416 28.3029 37.887 30.1532C37.8561 30.2033 37.8235 30.2523 37.7897 30.3002C38.3077 30.2122 38.8329 30.0241 39.2986 29.6745C40.3283 28.9019 40.9126 27.4602 41.0363 25.39C41.0633 24.9492 41.4322 24.6046 41.8787 24.6046H46.6904C48.9466 24.6046 50.7822 22.7894 50.7822 20.559V8.80605C50.7822 6.57504 48.9466 4.76039 46.6904 4.76039H31.4793C30.6903 4.76039 29.9418 4.97692 29.2895 5.38828C29.2957 5.49627 29.2996 5.60537 29.2996 5.71559V17.4691C29.2996 19.0861 28.6163 20.5467 27.5219 21.5871Z" fill="#05162D"/>
<path fill-rule="evenodd" clip-rule="evenodd" d="M12.4274 5.17676C14.0993 5.17676 15.273 5.95717 15.9141 6.53774C16.5557 5.95717 17.7289 5.17676 19.4008 5.17676C21.8291 5.17676 23.7311 7.27474 23.7311 9.95273C23.7311 11.7062 22.8105 15.1295 16.6469 18.3563C16.4174 18.4766 16.166 18.5367 15.9141 18.5367C15.6621 18.5367 15.4108 18.4766 15.1813 18.3563C9.01771 15.1295 8.09711 11.7062 8.09711 9.95273C8.09711 7.27474 9.99905 5.17676 12.4274 5.17676ZM9.78422 9.95273C9.78422 12.2862 12.0174 14.7983 15.9141 16.8512C19.8108 14.7983 22.0439 12.2862 22.0439 9.95273C22.0439 8.44702 21.1177 6.84668 19.4008 6.84668C18.2108 6.84668 17.3914 7.42058 16.914 7.90207C16.6536 8.1648 16.2886 8.3151 15.9141 8.3151C15.5395 8.3151 15.1746 8.1648 14.9142 7.90151C14.4367 7.42058 13.6174 6.84668 12.4274 6.84668C10.7105 6.84668 9.78422 8.44702 9.78422 9.95273Z" fill="#05162D"/>
</svg>
