<svg width="78" height="78" viewBox="0 0 78 78" fill="none" xmlns="http://www.w3.org/2000/svg">
<path d="M26.3456 58.043H15.1421V76.4766H26.3456V58.043Z" fill="#3B67B2"/>
<path d="M33.8097 54.7578L26.3456 59.836V65.302V74.5828C27.9324 75.8104 29.8818 76.4764 31.8882 76.4764H42.8227C44.6536 76.4764 46.1377 74.9923 46.1377 73.1614V62.9675C46.1377 61.1366 44.6536 59.6525 42.8227 59.6525H33.8099V54.7578H33.8097Z" fill="#FCCD9D"/>
<path d="M44.1552 47.4746H33.8096V59.6518H44.1552V47.4746Z" fill="#898998"/>
<path d="M39.0004 47.4624C51.6861 47.4624 61.9699 37.1786 61.9699 24.4929C61.9699 11.8072 51.6861 1.52344 39.0004 1.52344C26.3147 1.52344 16.0309 11.8072 16.0309 24.4929C16.0309 37.1786 26.3147 47.4624 39.0004 47.4624Z" fill="#3B67B2"/>
<path d="M39.0003 40.4929C47.837 40.4929 55.0006 33.3293 55.0006 24.4925C55.0006 15.6558 47.837 8.49219 39.0003 8.49219C30.1635 8.49219 22.9999 15.6558 22.9999 24.4925C22.9999 33.3293 30.1635 40.4929 39.0003 40.4929Z" fill="white"/>
<path d="M50.3949 34.6234C50.3949 32.2272 48.687 30.1713 46.3315 29.7319L43.4333 29.1914L34.556 29.1934L31.6687 29.7319C29.3131 30.1713 27.6052 32.2272 27.6052 34.6234V35.7209C30.5071 38.6655 34.5397 40.4926 39.0005 40.4926C43.4608 40.4926 47.4931 38.666 50.3948 35.7219V34.6234H50.3949Z" fill="#87AF1B"/>
<path d="M38.9996 18.7588C36.0029 18.7588 33.5736 21.1881 33.5736 24.1848V25.8824C33.5736 28.8791 36.0029 31.3084 38.9996 31.3084C41.9964 31.3084 44.4257 28.8791 44.4257 25.8824V24.1848C44.4257 21.1882 41.9964 18.7588 38.9996 18.7588Z" fill="#FCCD9D"/>
<path d="M61.5536 29.1176C60.7421 28.8954 59.9042 29.3727 59.6816 30.1841C58.7042 33.7502 56.7965 37.026 54.165 39.6576C45.803 48.0193 32.1974 48.0193 23.8358 39.6576C15.4739 31.2958 15.4739 17.6901 23.8358 9.32841C32.1974 0.966419 45.803 0.966571 54.165 9.32841C56.698 11.8613 58.5677 15.004 59.5722 18.4168C59.8099 19.2239 60.6574 19.686 61.4637 19.4482C62.271 19.2105 62.7326 18.3636 62.4951 17.5565C61.3472 13.6563 59.2116 10.0662 56.3196 7.17397C46.7697 -2.3757 31.231 -2.3757 21.6813 7.17397C12.1316 16.7238 12.1316 32.2622 21.6813 41.8121C24.7346 44.8652 28.4003 46.9404 32.2863 48.0414V53.952L27.5807 57.1535C27.304 56.7701 26.8546 56.5196 26.3456 56.5196H15.1421C14.3009 56.5196 13.6187 57.2017 13.6187 58.0431V76.4767C13.6187 77.3181 14.3009 78.0001 15.1421 78.0001H26.3456C26.9494 78.0001 27.4695 77.648 27.7161 77.1387C29.0288 77.701 30.4522 78.0001 31.8882 78.0001H42.8225C45.4905 78.0001 47.6611 75.8295 47.6611 73.1617V62.9676C47.6611 61.3672 46.8796 59.9466 45.6788 59.0653V48.0516C49.5782 46.9534 53.257 44.8746 56.3196 41.8122C59.3245 38.8072 61.5032 35.0648 62.6202 30.9896C62.8426 30.1782 62.365 29.34 61.5536 29.1176ZM24.8222 74.9532H16.6655V59.5665H24.8222V59.8365V74.583V74.9532ZM44.6142 73.1617C44.6142 74.1496 43.8106 74.9532 42.8225 74.9532H31.8882C30.4691 74.9532 29.0666 74.5443 27.8691 73.7913V60.6427L32.2863 57.6374V59.6526C32.2863 60.494 32.9685 61.176 33.8097 61.176H42.8225C43.8105 61.176 44.6142 61.9798 44.6142 62.9677V73.1617ZM42.6319 58.129H35.3331V54.7553C35.3331 54.7532 35.3331 54.7509 35.3331 54.7488V48.6994C36.5482 48.8819 37.7741 48.9745 39.0004 48.9745C40.2145 48.9745 41.4286 48.884 42.6319 48.705V58.129Z" fill="#05172D"/>
<path d="M39.0003 6.96973C29.3376 6.96973 21.4765 14.831 21.4765 24.4935C21.4765 34.1561 29.3376 42.0173 39.0003 42.0173C48.663 42.0173 56.5241 34.1562 56.5241 24.4935C56.5241 14.8308 48.663 6.96973 39.0003 6.96973ZM29.1284 35.072V34.6247C29.1284 32.9629 30.3141 31.5356 31.9477 31.2309L34.1204 30.8257C35.3762 32.0655 37.0999 32.8325 38.9998 32.8325C40.8997 32.8325 42.6233 32.0655 43.8791 30.8257L46.0518 31.2309C47.6854 31.5356 48.8711 32.9629 48.8711 34.6247V35.0729C46.2831 37.4891 42.8117 38.9703 39.0003 38.9703C35.1883 38.9704 31.7164 37.4888 29.1284 35.072ZM42.9024 25.8831C42.9024 28.0349 41.1517 29.7856 38.9998 29.7856C36.8478 29.7856 35.0971 28.0349 35.0971 25.8831V24.1855C35.0971 22.0336 36.8478 20.2829 38.9998 20.2829C41.1517 20.2829 42.9024 22.0336 42.9024 24.1855V25.8831ZM51.368 32.0114C50.5241 30.0938 48.7772 28.6399 46.6104 28.2357L45.6024 28.0477C45.8265 27.366 45.9494 26.6387 45.9494 25.8831V24.1855C45.9494 20.3536 42.8319 17.236 39 17.236C35.1679 17.236 32.0503 20.3536 32.0503 24.1855V25.8831C32.0503 26.6388 32.1733 27.366 32.3974 28.0477L31.3893 28.2357C29.2228 28.6397 27.4761 30.0932 26.6321 32.0103C25.2947 29.8179 24.5233 27.2441 24.5233 24.4935C24.5233 16.5109 31.0178 10.0166 39.0003 10.0166C46.9828 10.0166 53.4772 16.5109 53.4772 24.4935C53.4772 27.2445 52.7057 29.8187 51.368 32.0114Z" fill="#05172D"/>
<path d="M70.9922 0C70.1509 0 69.4688 0.682043 69.4688 1.52344V3.41707C69.4688 4.25846 70.1509 4.94051 70.9922 4.94051C71.8334 4.94051 72.5156 4.25846 72.5156 3.41707V1.52344C72.5156 0.682043 71.8334 0 70.9922 0Z" fill="#05172D"/>
<path d="M70.9922 9.0752C70.1509 9.0752 69.4688 9.75724 69.4688 10.5986V12.4923C69.4688 13.3337 70.1509 14.0157 70.9922 14.0157C71.8334 14.0157 72.5156 13.3337 72.5156 12.4923V10.5986C72.5156 9.75724 71.8334 9.0752 70.9922 9.0752Z" fill="#05172D"/>
<path d="M76.4763 5.48438H74.5827C73.7415 5.48438 73.0593 6.16642 73.0593 7.00781C73.0593 7.84921 73.7415 8.53125 74.5827 8.53125H76.4763C77.3176 8.53125 77.9998 7.84921 77.9998 7.00781C77.9998 6.16642 77.3176 5.48438 76.4763 5.48438Z" fill="#05172D"/>
<path d="M67.4014 5.48438H65.5078C64.6666 5.48438 63.9844 6.16642 63.9844 7.00781C63.9844 7.84921 64.6666 8.53125 65.5078 8.53125H67.4014C68.2427 8.53125 68.9249 7.84921 68.9249 7.00781C68.9249 6.16642 68.2427 5.48438 67.4014 5.48438Z" fill="#05172D"/>
<path d="M7.00781 40.4678C6.16657 40.4678 5.48438 41.1498 5.48438 41.9912V43.8848C5.48438 44.7262 6.16657 45.4083 7.00781 45.4083C7.84905 45.4083 8.53125 44.7262 8.53125 43.8848V41.9912C8.53125 41.1498 7.84905 40.4678 7.00781 40.4678Z" fill="#05172D"/>
<path d="M7.00781 49.543C6.16657 49.543 5.48438 50.225 5.48438 51.0664V52.96C5.48438 53.8014 6.16657 54.4835 7.00781 54.4835C7.84905 54.4835 8.53125 53.8014 8.53125 52.96V51.0664C8.53125 50.225 7.84905 49.543 7.00781 49.543Z" fill="#05172D"/>
<path d="M12.4919 45.9521H10.5983C9.75707 45.9521 9.07487 46.6342 9.07487 47.4756C9.07487 48.317 9.75707 48.999 10.5983 48.999H12.4919C13.3332 48.999 14.0154 48.317 14.0154 47.4756C14.0154 46.6342 13.3332 45.9521 12.4919 45.9521Z" fill="#05172D"/>
<path d="M3.41707 45.9521H1.52344C0.682195 45.9521 0 46.6342 0 47.4756C0 48.317 0.682195 48.999 1.52344 48.999H3.41707C4.25831 48.999 4.94051 48.317 4.94051 47.4756C4.94051 46.6342 4.25831 45.9521 3.41707 45.9521Z" fill="#05172D"/>
<path d="M61.9707 22.9707C61.5685 22.9707 61.1754 23.1322 60.8922 23.4155C60.6089 23.7004 60.4457 24.092 60.4457 24.4926C60.4457 24.8948 60.6087 25.2863 60.8922 25.5712C61.1754 25.8546 61.5685 26.0161 61.9707 26.0161C62.3715 26.0161 62.7629 25.8546 63.0477 25.5712C63.3311 25.2863 63.4926 24.8948 63.4926 24.4926C63.4926 24.092 63.3311 23.7004 63.0477 23.4155C62.7645 23.1322 62.3715 22.9707 61.9707 22.9707Z" fill="#05172D"/>
</svg>
