<svg width="14" height="8" viewBox="0 0 14 8" fill="none" xmlns="http://www.w3.org/2000/svg">
<path d="M1.575 1.00313H0.525C0.235047 1.00313 0 1.22769 0 1.5047V5.85162C0 6.12863 0.235047 6.35319 0.525 6.35319H1.575C1.86495 6.35319 2.1 6.12863 2.1 5.85162V1.5047C2.1 1.22769 1.86495 1.00313 1.575 1.00313ZM1.05 5.76803C0.808369 5.76803 0.6125 5.5809 0.6125 5.35005C0.6125 5.11921 0.808369 4.93208 1.05 4.93208C1.29163 4.93208 1.4875 5.11921 1.4875 5.35005C1.4875 5.5809 1.29163 5.76803 1.05 5.76803ZM13.475 1.00313H12.425C12.135 1.00313 11.9 1.22769 11.9 1.5047V5.85162C11.9 6.12863 12.135 6.35319 12.425 6.35319H13.475C13.765 6.35319 14 6.12863 14 5.85162V1.5047C14 1.22769 13.765 1.00313 13.475 1.00313ZM12.95 5.76803C12.7084 5.76803 12.5125 5.5809 12.5125 5.35005C12.5125 5.11921 12.7084 4.93208 12.95 4.93208C13.1916 4.93208 13.3875 5.11921 13.3875 5.35005C13.3875 5.5809 13.1916 5.76803 12.95 5.76803ZM10.6299 0.599164L11.55 1.60376V5.35005H11.1307C11.1429 5.03741 11.0348 4.74441 10.8244 4.52017L9.05428 2.45308C9.11837 2.38621 9.11466 2.28255 9.04597 2.21985C8.98428 2.16343 8.89109 2.15883 8.82416 2.20397C8.81497 2.21024 7.504 3.51912 7.504 3.51912L7.49962 3.52351C6.97672 4.08579 6.0531 4.07114 5.54947 3.49383C5.21084 3.10554 5.215 2.54525 5.55931 2.16134L7.01553 0.53814C7.3129 0.206479 7.75543 0 8.24031 0H9.24766C9.50944 1.10329e-05 9.7682 0.0534755 10.0066 0.156811C10.245 0.260146 10.4575 0.410966 10.6299 0.599164ZM10.5562 4.73542C10.8944 5.0861 10.8316 5.65141 10.5044 5.94232C10.1169 6.28635 9.57615 6.21409 9.49966 6.13459C9.53582 6.46182 9.03177 7.12203 8.26547 7.06834C8.12711 7.51108 7.55895 7.88148 6.97091 7.68715C6.74734 7.90052 6.40609 8 6.10006 8C5.47247 8 4.89869 7.74943 4.51237 7.35632L2.45 5.35005V1.49467L3.79225 0.437826C4.08563 0.157516 4.48355 2.52408e-05 4.89847 0H5.71703C6.083 0 6.43191 0.142947 6.68412 0.393939L5.29353 1.94378C4.83766 2.45183 4.83219 3.19373 5.28062 3.70805C5.9232 4.44466 7.0964 4.45732 7.75928 3.74817L8.81169 2.69592L10.5562 4.73542Z" fill="url(#paint0_linear)"/>
<defs>
<linearGradient id="paint0_linear" x1="9.30782" y1="-0.359881" x2="0.926783" y2="7.14849" gradientUnits="userSpaceOnUse">
<stop stop-color="#1D4FA5"/>
<stop offset="1" stop-color="#094F8C"/>
</linearGradient>
</defs>
</svg>
