<svg width="19" height="15" viewBox="0 0 19 15" fill="none" xmlns="http://www.w3.org/2000/svg">
<path d="M17.6454 3.91416H17.1284V9.55329C17.1284 10.4342 16.6114 11.2255 15.5722 11.2255H5.39648V11.4945C5.39648 12.27 6.29325 13.056 7.21113 13.056H14.992L17.9672 14.781L17.5346 13.056H17.6454C18.5632 13.056 18.98 12.27 18.98 11.4945V5.25405C18.98 4.4786 18.5632 3.91416 17.6454 3.91416ZM14.053 0H2.23666C1.19746 0 0 0.907325 0 1.78827V8.85697C0 9.66407 1.01283 10.2496 1.98346 10.3393L1.35044 12.7078L5.40703 10.3551H14.053C15.0922 10.3551 16.0523 9.73265 16.0523 8.85697V3.13871V1.78827C16.0523 0.907325 15.0922 0 14.053 0ZM4.03549 5.96619C3.44995 5.96619 2.96991 5.49143 2.96991 4.91116C2.96991 4.3309 3.44995 3.85613 4.03549 3.85613C4.6263 3.85613 5.10634 4.3309 5.10634 4.91116C5.10634 5.49143 4.6263 5.96619 4.03549 5.96619ZM8.0235 5.96619C7.43796 5.96619 6.95792 5.49143 6.95792 4.91116C6.95792 4.3309 7.43796 3.85613 8.0235 3.85613C8.61432 3.85613 9.09435 4.3309 9.09435 4.91116C9.09435 5.49143 8.61432 5.96619 8.0235 5.96619ZM12.0115 5.96619C11.426 5.96619 10.9459 5.49143 10.9459 4.91116C10.9459 4.3309 11.426 3.85613 12.0115 3.85613C12.6023 3.85613 13.0824 4.3309 13.0824 4.91116C13.0824 5.49143 12.6023 5.96619 12.0115 5.96619Z" fill="#3B67B2"/>
</svg>
